<svg width="243" height="96" viewBox="0 0 243 96" fill="none" xmlns="http://www.w3.org/2000/svg">
<path d="M43.8833 26.8392C40.9023 26.7505 38.5224 25.5429 36.9339 23.0068C34.8551 19.6866 35.7006 15.4193 38.8549 12.9901C42.3275 10.316 47.4127 10.8466 50.2431 14.1808C53.6006 18.1357 52.0689 24.1651 47.1939 26.1932C46.1382 26.6323 45.0427 26.8687 43.8847 26.8392H43.8833ZM39.6079 14.0809C39.7145 14.0893 39.8083 14.071 39.8651 13.9697C40.0129 13.9021 40.1635 13.8388 40.307 13.7642C41.7421 13.0211 43.251 12.8071 44.841 13.114C47.8603 13.6966 50.0342 16.3412 49.9959 19.3812C49.9845 20.2299 49.7543 21.0237 49.4431 21.802C49.2613 22.099 49.078 22.3959 48.8961 22.6943C49.267 22.5465 49.4559 22.265 49.5938 21.9427C50.4434 20.6535 50.712 19.2222 50.4434 17.7359C49.5625 12.848 43.8208 10.9944 40.0626 13.7051C39.9702 13.7712 39.8381 13.8219 39.8708 13.9795C39.7557 13.95 39.6761 13.9978 39.615 14.0907C39.6008 14.1006 39.5852 14.109 39.5724 14.1217C39.5667 14.1273 39.5681 14.1414 39.5653 14.1512L39.6037 14.0823L39.6079 14.0809Z" fill="#FBBA0E"/>
<path d="M43.0665 42.0792C42.744 41.9328 42.386 41.9427 42.0506 41.8512C40.6752 41.4726 39.53 40.7661 38.7358 39.5712C38.1006 38.6141 37.8633 37.5684 38.1205 36.4284C38.551 34.5241 38.9517 32.6143 39.395 30.7142C39.7943 29.0042 41.1001 27.8881 42.8861 27.639C43.6477 27.532 44.405 27.5461 45.1552 27.6826C46.2706 27.8853 47.1075 28.4821 47.6431 29.4912C48.1035 30.3582 48.2129 31.3096 48.3664 32.2511C48.6036 33.6952 48.8281 35.142 49.0569 36.5874C49.1493 37.1743 49.1606 37.764 49.0612 38.3495C48.7827 39.9976 47.7582 41.0236 46.2265 41.5936C45.7676 41.7639 45.2802 41.861 44.8071 41.9919C44.226 41.9976 43.6491 42.1214 43.0651 42.0806L43.0665 42.0792Z" fill="#FFDD0C"/>
<path d="M52.9441 24.0946C53.7341 24.0735 54.4232 24.3086 55.0612 24.7125C56.4806 25.609 57.8731 26.5534 59.3266 27.3908C61.1666 28.4506 61.8302 30.4013 61.276 32.3309C60.5869 34.7291 58.9444 36.1985 56.492 36.7446C55.3496 36.9993 54.3437 36.6292 53.4514 35.924C53.0805 35.6313 52.7566 35.2893 52.4781 34.9093C51.4636 33.5272 50.4519 32.1437 49.4403 30.7588C49.0382 30.2099 48.7455 29.6131 48.5877 28.9474C48.4258 28.2648 48.4798 27.6005 48.7952 26.9855C49.3692 25.8666 50.2317 25.0109 51.3613 24.4366C51.86 24.1833 52.4028 24.0665 52.9455 24.0932L52.9441 24.0946Z" fill="#FFDD0C"/>
<path d="M34.9191 24.095C35.3539 24.0838 35.7816 24.1387 36.1851 24.3047C37.5548 24.8705 38.5409 25.8431 39.1547 27.1674C39.4957 27.9049 39.4247 28.6748 39.1519 29.4292C38.97 29.9316 38.7129 30.3905 38.396 30.8211C37.4042 32.1694 36.4253 33.5262 35.425 34.8689C34.7103 35.8287 33.8308 36.5564 32.5946 36.7703C31.8813 36.8942 31.1922 36.7999 30.5415 36.5381C28.3079 35.6416 26.8188 34.0892 26.4764 31.6642C26.2348 29.9584 26.7961 28.5298 28.3065 27.5629C29.8069 26.6031 31.3173 25.6573 32.8234 24.7073C33.4613 24.3047 34.1519 24.0739 34.9177 24.0964L34.9191 24.095Z" fill="#FFDD0C"/>
<path d="M35.0612 20.3338C35.0456 20.6181 35.0513 20.9053 35.0087 21.1853C34.7785 22.6674 33.9118 23.5568 32.3005 23.8735C31.053 24.1184 29.7913 24.2901 28.5352 24.4843C27.9072 24.5815 27.2863 24.7236 26.6441 24.7222C24.9632 24.718 23.7867 23.9411 23.1771 22.3845C22.552 20.787 22.5562 19.1981 23.386 17.6668C23.9984 16.5394 24.9106 15.7625 26.2135 15.505C26.6014 15.4276 26.9879 15.4233 27.3744 15.5078C29.0382 15.8681 30.7063 16.2129 32.3644 16.5971C33.9515 16.9645 34.9689 18.2255 35.0385 19.8441C35.0456 20.0059 35.0385 20.1692 35.0385 20.3324H35.0584L35.0612 20.3338Z" fill="#FFDD0C"/>
<path d="M52.8319 20.3084C52.8362 19.9636 52.8362 19.6216 52.9101 19.2768C53.2184 17.8328 54.1093 16.9334 55.5358 16.5914C57.1115 16.2142 58.7029 15.9074 60.2829 15.5499C61.5091 15.2727 62.5733 15.5964 63.4784 16.4056C64.7757 17.5654 65.2531 19.0544 65.0968 20.756C65.0485 21.2838 64.932 21.7989 64.743 22.2985C64.0283 24.1859 62.5094 24.9318 60.5941 24.6827C59.0681 24.4857 57.552 24.2168 56.0331 23.9734C55.7504 23.9283 55.469 23.8608 55.1962 23.7763C53.6063 23.2879 52.8475 22.269 52.8333 20.6138C52.8333 20.5125 52.8333 20.4098 52.8333 20.3084H52.8319Z" fill="#FFDD0C"/>
<path d="M38.5338 0.762146C39.669 0.757924 40.4676 0.971853 41.1766 1.47712C41.7662 1.89653 42.1683 2.45106 42.3346 3.15055C42.6884 4.63397 43.0422 6.1174 43.3675 7.60646C43.5835 8.59447 43.2851 9.46848 42.5889 10.1863C41.9438 10.8506 41.1126 11.2179 40.2146 11.3952C39.301 11.5754 38.511 11.2756 37.8574 10.631C37.6543 10.4312 37.4667 10.2116 37.3033 9.97937C36.5275 8.87877 35.7617 7.77112 34.9972 6.66348C34.6463 6.1554 34.3834 5.60932 34.2968 4.98864C34.1845 4.18219 34.355 3.44188 34.8523 2.80151C35.8441 1.51793 37.1584 0.821258 38.5338 0.762146Z" fill="#FFDD0C"/>
<path d="M49.0483 0.774116C50.6937 0.812117 52.0151 1.50176 53.0097 2.78392C53.6888 3.65934 53.7741 4.64594 53.4075 5.67336C53.2768 6.03789 53.0836 6.37426 52.8605 6.69516C52.1017 7.7831 51.3473 8.87385 50.5885 9.96179C50.4947 10.0955 50.3924 10.2236 50.2859 10.3474C49.3367 11.4494 48.2157 11.7183 46.8602 11.1623C46.4041 10.9751 45.9565 10.7697 45.5757 10.4502C44.6692 9.69156 44.2714 8.73311 44.5172 7.57198C44.8113 6.18004 45.1395 4.79513 45.472 3.41163C45.8485 1.84657 47.0392 0.878266 48.6803 0.776931C48.8025 0.769894 48.9261 0.776931 49.0497 0.776931L49.0483 0.774116Z" fill="#FFDD0C"/>
<path d="M33.99 15.9424C33.5197 15.9593 33.0792 15.8636 32.6572 15.6961C31.3245 15.1669 29.986 14.649 28.666 14.0888C27.096 13.4231 26.3557 12.224 26.5561 10.6786C26.6982 9.58364 27.1372 8.60407 27.9144 7.79762C28.6319 7.0545 29.4972 6.58301 30.5458 6.47041C31.4737 6.37189 32.3063 6.59567 32.9912 7.2262C34.0895 8.23673 35.175 9.26134 36.2449 10.3C37.1855 11.2134 37.41 12.4843 36.8658 13.6708C36.6271 14.1901 36.3373 14.6827 35.9423 15.1064C35.4123 15.675 34.7729 15.9888 33.9872 15.9424H33.99Z" fill="#FFDD0C"/>
<path d="M53.8735 15.9431C53.1048 15.9741 52.4839 15.6968 51.988 15.1606C51.441 14.5695 51.0204 13.8982 50.8215 13.11C50.5629 12.0812 50.7916 11.1495 51.5376 10.4049C52.6515 9.29447 53.7939 8.20934 54.969 7.16222C55.8329 6.39236 56.8914 6.26991 57.9769 6.59644C59.7516 7.13126 60.749 8.39935 61.2137 10.1249C61.3685 10.7005 61.4055 11.2888 61.2634 11.8743C60.9877 13.0044 60.202 13.6786 59.169 14.1065C57.9585 14.6089 56.7365 15.0874 55.5203 15.5758C55.4066 15.6223 55.2929 15.6701 55.1778 15.7123C54.7502 15.8643 54.3125 15.9643 53.8749 15.9417L53.8735 15.9431Z" fill="#FFDD0C"/>
<path d="M43.8947 78.2928C44.3068 77.7186 44.8638 77.5807 45.4534 77.5764C47.4909 77.561 49.5214 77.416 51.5433 77.1852C58.0139 76.4463 64.2259 74.8615 69.9164 71.6047C73.1574 69.7483 75.9849 67.419 78.183 64.3846C78.2555 64.2847 78.3151 64.1763 78.3975 64.0863C78.7513 63.7006 78.7727 63.3206 78.5737 62.8154C78.0594 61.5093 78.2583 60.213 78.8281 58.9618C79.5911 57.2884 80.8244 55.9879 82.2211 54.824C82.4228 54.6551 82.6104 54.4609 82.8761 54.3666C83.0807 54.5763 83.0565 54.8564 83.1091 55.1055C83.4231 56.5903 83.5752 58.0864 83.3052 59.5938C82.9955 61.3193 82.1685 62.6774 80.4862 63.4149C80.1651 63.5557 79.8312 63.6668 79.4859 63.7133C79.2401 63.7471 79.081 63.84 78.9474 64.0497C76.279 68.2621 72.5024 71.2374 68.1162 73.5174C64.2273 75.5399 60.0869 76.8403 55.7874 77.6693C53.0195 78.2027 50.2261 78.5363 47.4085 78.6672C46.9141 78.6897 46.4281 78.7713 45.9635 78.9529C45.3355 79.1978 44.7984 79.7073 44.8027 80.6418C44.8226 85.1653 44.8126 89.6887 44.8112 94.2122C44.8112 94.3952 44.8226 94.5809 44.8027 94.7625C44.7529 95.2101 44.3835 95.5718 43.9601 95.607C43.5537 95.6407 43.1076 95.3255 43.0039 94.8906C42.9527 94.6766 42.9584 94.4458 42.9584 94.2235C42.9556 89.7197 42.957 85.2173 42.957 80.7136C42.957 79.6791 42.6018 79.1964 41.6001 78.8741C41.1667 78.7347 40.7191 78.6813 40.2659 78.6587C35.8981 78.442 31.6029 77.7791 27.4 76.5673C23.7697 75.5202 20.3141 74.0762 17.1172 72.0607C13.8151 69.9791 10.9791 67.4162 8.8776 64.1102C8.75682 63.9188 8.64316 63.7668 8.3803 63.7105C6.276 63.2629 5.07821 61.9146 4.6278 59.8823C4.21717 58.0273 4.4985 56.2033 4.91766 54.3891C5.14784 54.3624 5.25298 54.5031 5.37233 54.596C6.58717 55.553 7.67129 56.6339 8.50107 57.9428C9.0069 58.7423 9.37348 59.5966 9.52693 60.5395C9.67044 61.4136 9.57098 62.2552 9.22003 63.0504C9.05379 63.4276 9.1092 63.6809 9.32659 63.9934C11.2206 66.7196 13.6332 68.9067 16.4139 70.711C20.0271 73.0572 23.9842 74.618 28.1445 75.7046C31.3102 76.5321 34.5298 77.0585 37.7936 77.3301C39.2698 77.4526 40.7447 77.5567 42.2267 77.568C42.8575 77.5722 43.4614 77.682 43.8976 78.2872L43.8947 78.2928Z" fill="#70B156"/>
<path d="M30.3667 43.1954C33.4628 44.4044 36.35 45.9146 38.6631 48.3283C39.9035 49.6231 40.7845 51.1178 41.0388 52.9221C41.0473 52.9827 41.0616 53.0418 41.0687 53.1023C41.144 53.7328 41.0885 53.7948 40.4378 53.8201C38.6987 53.8862 37.1741 53.3036 35.7987 52.2944C34.456 51.3092 33.44 50.0383 32.5946 48.6281C31.6256 47.0124 30.9066 45.2855 30.3426 43.4938C30.3198 43.422 30.2673 43.3474 30.3681 43.1954H30.3667Z" fill="#70B156"/>
<path d="M57.6415 43.1891C56.6071 46.3178 55.3837 49.2072 53.0379 51.4816C51.7903 52.692 50.3311 53.514 48.5778 53.7715C48.1686 53.832 47.7594 53.8334 47.3502 53.8152C46.7889 53.7912 46.7321 53.7194 46.806 53.1368C46.9253 52.1797 47.2038 51.2705 47.6727 50.4218C48.4442 49.0229 49.5212 47.8885 50.7687 46.9033C52.7437 45.3439 54.9447 44.1785 57.299 43.2904C57.3729 43.2623 57.4511 43.2454 57.6429 43.1891H57.6415Z" fill="#70B156"/>
<path d="M31.8472 89.1229C31.742 89.0497 31.7534 88.9413 31.7534 88.8428C31.7577 86.8555 31.9552 84.8978 32.6997 83.0301C33.1047 82.014 33.663 81.0963 34.4928 80.3588C35.182 79.7452 35.9876 79.3567 36.887 79.1611C37.4141 79.0471 37.4667 79.0682 37.7011 79.5552C38.6531 81.5312 38.4798 83.4228 37.2294 85.2187C36.7463 85.9111 36.1467 86.4994 35.4874 87.0244C34.4559 87.8449 33.322 88.5022 32.1271 89.0581C32.039 89.0989 31.9538 89.1721 31.8472 89.1243V89.1229Z" fill="#70B156"/>
<path d="M56.1228 88.1404C56.1185 89.3649 56.1981 89.286 55.2248 88.7991C53.8778 88.1263 52.6132 87.3339 51.5419 86.2657C50.6723 85.3987 49.9932 84.4163 49.7147 83.2046C49.422 81.9238 49.5825 80.6965 50.1878 79.5284C50.4223 79.0752 50.4578 79.0512 50.9551 79.154C52.3248 79.4397 53.4047 80.1687 54.2245 81.2862C55.0259 82.3784 55.4606 83.624 55.7519 84.9258C55.9963 86.0222 56.0745 87.1411 56.1228 88.1404Z" fill="#70B156"/>
<path d="M43.0664 42.08C43.6503 42.1208 44.2258 41.997 44.8083 41.9913C44.8083 49.2776 44.8098 56.5652 44.8112 63.8515C44.8112 63.9528 44.8169 64.0555 44.8069 64.1569C44.7614 64.672 44.4219 64.9844 43.9203 64.976C43.4471 64.9675 43.1175 64.6635 43.0678 64.185C43.0564 64.0837 43.0621 63.9824 43.0621 63.8796C43.0621 56.6131 43.0649 49.3465 43.0664 42.08Z" fill="#70B156"/>
<path d="M71.6825 82.8769C69.4702 83.0049 67.3645 82.981 65.3895 82.0577C63.4529 81.1528 62.4171 79.6215 62.3375 77.4878C62.3162 76.9122 62.3318 76.9038 62.9115 76.7461C64.1249 76.4168 65.3071 76.5055 66.4551 77.0262C67.4426 77.4738 68.271 78.1338 69.0084 78.9093C70.03 79.9818 70.8513 81.1964 71.5305 82.5053C71.5759 82.594 71.6058 82.6897 71.6811 82.8783L71.6825 82.8769Z" fill="#70B156"/>
<path d="M23.5366 86.1721C23.6148 85.4444 23.8421 84.7675 24.0709 84.0947C24.5937 82.5606 25.2843 81.1138 26.4039 79.9048C27.3545 78.8774 28.5011 78.2187 29.9305 78.1132C30.0939 78.1005 30.2587 78.0906 30.4221 78.0949C31.0104 78.1075 31.0345 78.116 31.161 78.6832C31.6029 80.6634 31.0445 82.3411 29.5611 83.7189C28.7867 84.4381 27.8703 84.9378 26.897 85.3389C25.9649 85.7217 24.9958 85.9863 24.014 86.2044C23.879 86.234 23.737 86.2833 23.5366 86.1735V86.1721Z" fill="#70B156"/>
<path d="M3.61182 73.2787C5.24865 71.9853 6.9139 70.9804 8.84627 70.4526C9.58512 70.2514 10.3353 70.1683 11.0998 70.2063C12.3189 70.2669 13.3575 70.7327 14.264 71.5335C14.5311 71.77 14.5482 71.967 14.4004 72.2682C13.4897 74.1204 11.9949 75.0929 9.92897 75.2168C9.18444 75.2604 8.45269 75.152 7.73374 74.9803C6.30861 74.6411 4.98295 74.0627 3.61182 73.2773V73.2787Z" fill="#70B156"/>
<path d="M84.2244 73.3009C82.8845 74.0637 81.5475 74.6548 80.1011 74.9884C79.0922 75.2206 78.0777 75.3206 77.0519 75.1052C75.3369 74.7449 74.1604 73.7386 73.4358 72.175C73.3235 71.9343 73.3562 71.7739 73.5537 71.5909C74.4247 70.7844 75.4406 70.3045 76.6327 70.2158C77.4369 70.1553 78.2269 70.2398 79.0098 70.4452C80.6751 70.8844 82.9414 72.1018 84.2244 73.3009Z" fill="#70B156"/>
<path d="M17.7893 82.9008C17.3786 82.9008 16.9666 82.9177 16.5574 82.8951C16.2434 82.8783 16.2022 82.7966 16.3471 82.5067C16.5105 82.1788 16.6938 81.8593 16.8842 81.5454C17.6941 80.2112 18.629 78.9783 19.8637 77.9945C21.053 77.0459 22.3715 76.452 23.943 76.5645C24.3565 76.5941 24.7486 76.7039 25.1479 76.7982C25.479 76.877 25.5543 77.0712 25.5472 77.3738C25.506 79.1401 24.8083 80.5658 23.3292 81.582C22.292 82.2956 21.1084 82.6207 19.8779 82.7966C19.186 82.8965 18.4897 82.95 17.7893 82.9008Z" fill="#70B156"/>
<path d="M64.2742 86.2813C62.1003 85.8379 60.0415 85.2356 58.3734 83.7662C56.8715 82.4446 56.3075 80.7782 56.6811 78.8163C56.8119 78.1323 56.8744 78.0886 57.5678 78.0943C59.1179 78.1069 60.3811 78.7487 61.4254 79.8507C62.3816 80.8599 63.0182 82.0632 63.5297 83.3383C63.8252 84.0758 64.0526 84.8358 64.243 85.6057C64.2913 85.7999 64.351 85.9928 64.2756 86.2827L64.2742 86.2813Z" fill="#70B156"/>
<path d="M78.0651 79.1135C77.4299 79.3317 76.8559 79.3851 76.2904 79.4442C74.8767 79.592 73.4615 79.6371 72.0705 79.2585C70.0429 78.7068 68.6789 77.4738 68.2085 75.4063C67.9571 74.3029 68.0153 74.4296 68.9232 74.082C70.2631 73.5697 71.5845 73.7273 72.8732 74.2903C73.9005 74.7392 74.7857 75.3965 75.597 76.1551C76.5249 77.0235 77.3376 77.9862 78.0665 79.1135H78.0651Z" fill="#70B156"/>
<path d="M9.80823 79.1156C10.5755 77.9348 11.4337 76.9327 12.4169 76.0319C13.1913 75.3226 14.0353 74.7146 15.0029 74.2895C16.4422 73.6576 17.8958 73.5718 19.3536 74.2375C19.7983 74.4401 19.821 74.4472 19.7543 74.9257C19.5099 76.7061 18.5877 78.0234 16.9594 78.8327C16.1794 79.2198 15.3411 79.4238 14.4772 79.4956C13.0364 79.6152 11.6056 79.5097 10.1876 79.2352C10.0896 79.2169 9.99578 79.1747 9.80823 79.1142V79.1156Z" fill="#70B156"/>
<path d="M43.8959 66.6966C45.1349 68.3827 46.0912 70.1434 46.2191 72.2292C46.3228 73.9392 45.6322 75.3171 44.2654 76.36C43.8519 76.6752 43.832 76.6795 43.4256 76.3445C41.9295 75.1116 41.2091 73.5564 41.4435 71.6099C41.6368 70.0167 42.7024 67.8451 43.8959 66.6952V66.6966Z" fill="#70B156"/>
<path d="M69.932 59.7C71.3543 61.2397 72.6388 62.8189 73.1076 64.8822C73.5154 66.6724 73.0608 68.229 71.7067 69.5041C71.2889 69.8982 71.2435 69.8954 70.7732 69.5661C69.574 68.7287 68.953 67.5535 68.7385 66.1404C68.4614 64.3164 68.855 62.5768 69.4262 60.8611C69.5526 60.4811 69.6677 60.0899 69.9306 59.6986L69.932 59.7Z" fill="#70B156"/>
<path d="M22.5207 62.4838C22.8418 62.9313 22.9811 63.4014 23.1459 63.8574C23.6773 65.3254 24.0197 66.8285 23.9387 68.4006C23.8563 70.0022 23.2866 71.3731 21.9538 72.3639C21.4892 72.7101 21.4636 72.7186 21.0217 72.3231C19.5326 70.9945 19.1007 69.3464 19.5525 67.4435C19.7415 66.6455 20.0754 65.9024 20.4903 65.1945C21.0601 64.2248 21.7364 63.3353 22.5207 62.4838Z" fill="#70B156"/>
<path d="M17.9769 59.6937C18.487 60.7957 18.8109 61.8992 19.0283 63.0378C19.267 64.289 19.3338 65.5374 19.0084 66.7843C18.7044 67.9497 18.0778 68.8983 17.0732 69.5893C16.6342 69.8919 16.5915 69.8962 16.1894 69.5218C14.672 68.1073 14.3182 66.386 14.8737 64.448C15.1977 63.3193 15.7959 62.3256 16.502 61.3925C16.9439 60.8084 17.4043 60.2398 17.9769 59.6951V59.6937Z" fill="#70B156"/>
<path d="M65.3185 62.431C66.8133 64.134 68.0892 65.8257 68.433 68.0101C68.703 69.7285 68.1546 71.1852 66.8346 72.3407C66.4097 72.7137 66.3913 72.7038 65.9494 72.3829C64.7232 71.4948 64.1079 70.2577 63.9687 68.7982C63.757 66.5872 64.3736 64.5337 65.3199 62.431H65.3185Z" fill="#70B156"/>
<path d="M32.8532 65.7509C33.7966 68.014 34.473 70.1927 34.0666 72.56C33.8464 73.8393 33.2198 74.8836 32.1669 75.6676C31.6994 76.0152 31.654 76.0194 31.232 75.6422C29.9205 74.4727 29.4204 73.0118 29.6775 71.2947C29.8395 70.2096 30.2985 69.2328 30.8682 68.3053C31.4138 67.4172 32.0618 66.6094 32.8532 65.7523V65.7509Z" fill="#70B156"/>
<path d="M27.5265 64.4601C27.6558 64.4981 27.6885 64.5755 27.7183 64.6459C28.5054 66.5037 29.0255 68.4206 28.8678 70.4571C28.7484 72.0067 28.1531 73.3297 26.8359 74.2628C26.3571 74.602 26.3287 74.6147 25.8982 74.2149C24.4603 72.8821 24.0226 71.2537 24.4944 69.3776C24.8851 67.821 25.7589 66.5206 26.7649 65.2975C27.0079 65.0019 27.2395 64.6909 27.5251 64.4615L27.5265 64.4601Z" fill="#70B156"/>
<path d="M60.2941 64.4695C60.3155 64.4738 60.3425 64.471 60.3552 64.4836C61.8898 66.0599 63.1572 67.8009 63.5081 70.0218C63.7667 71.6629 63.2254 73.0731 61.9892 74.2047C61.5431 74.6129 61.5118 74.6044 61.0003 74.2329C59.7556 73.3293 59.1518 72.0654 59.0196 70.5876C58.8292 68.468 59.355 66.4723 60.2117 64.547C60.2259 64.5146 60.2672 64.4935 60.2941 64.4681V64.4695Z" fill="#70B156"/>
<path d="M55.0257 65.7393C56.5219 67.4353 57.8106 69.0932 58.1829 71.2508C58.4884 73.0143 57.947 74.5076 56.583 75.6912C56.2136 76.0121 56.2036 76.0051 55.7958 75.7222C54.5327 74.8454 53.8961 73.5998 53.7356 72.1178C53.4969 69.9081 54.1221 67.8603 55.0243 65.7379L55.0257 65.7393Z" fill="#70B156"/>
<path d="M0 66.2371C0.0625179 66.171 0.0951978 66.1104 0.144928 66.0879C2.05599 65.2209 4.03241 64.6481 6.1637 64.8311C7.65419 64.9592 8.87471 65.5925 9.76417 66.8057C10.1023 67.2659 10.1023 67.3039 9.71728 67.7445C8.35893 69.3011 6.65674 69.6994 4.70021 69.1702C3.36887 68.8099 2.23075 68.0808 1.158 67.2448C0.755899 66.9324 0.358057 66.6129 0.00142086 66.2357L0 66.2371Z" fill="#70B156"/>
<path d="M87.8688 66.265C86.3357 67.6386 84.7372 68.88 82.6642 69.2867C80.837 69.6456 79.2967 69.1066 78.0975 67.6724C77.7864 67.2994 77.7864 67.2727 78.0592 66.88C78.8918 65.6837 80.0569 65.0096 81.4962 64.8533C83.7298 64.6098 85.8114 65.177 87.802 66.1425C87.8162 66.1496 87.8219 66.1763 87.8674 66.265H87.8688Z" fill="#70B156"/>
<path d="M49.7472 66.4987C51.053 68.189 52.1684 69.8596 52.3815 71.9496C52.5549 73.6442 51.9226 75.0051 50.5671 76.0509C50.2971 76.2592 50.0769 76.2563 49.797 76.0635C48.6447 75.274 47.9882 74.2015 47.876 72.8152C47.8049 71.9369 47.8916 71.0714 48.1218 70.2185C48.467 68.9349 48.9999 67.7358 49.7487 66.5001L49.7472 66.4987Z" fill="#70B156"/>
<path d="M38.1174 66.5255C38.5948 67.2123 38.906 67.8935 39.1959 68.5831C39.7699 69.9483 40.1322 71.3571 39.9972 72.8546C39.8722 74.2424 39.2044 75.305 38.0464 76.0847C37.7835 76.262 37.5761 76.2494 37.3274 76.0636C35.979 75.0474 35.361 73.7019 35.4803 72.0327C35.5485 71.0897 35.8526 70.2059 36.2689 69.3572C36.7562 68.365 37.3729 67.4586 38.1174 66.524V66.5255Z" fill="#70B156"/>
<path d="M12.9668 56.9655C13.4954 57.8127 13.8421 58.653 14.1205 59.5185C14.5312 60.788 14.7883 62.0786 14.5639 63.4227C14.382 64.5093 13.8889 65.4213 13.0407 66.1376C12.6613 66.4585 12.6542 66.4642 12.2621 66.1756C10.7318 65.0455 10.2402 63.5128 10.5513 61.7C10.8156 60.1589 11.5971 58.843 12.4908 57.5861C12.6201 57.4046 12.7622 57.2301 12.9654 56.9655H12.9668Z" fill="#70B156"/>
<path d="M74.8979 57.0579C74.9348 57.072 74.986 57.0748 75.0059 57.1016C76.0786 58.4836 77.0093 59.946 77.319 61.6968C77.6387 63.5053 77.1443 65.0422 75.6154 66.1724C75.2219 66.4637 75.2133 66.4581 74.834 66.14C73.6248 65.1253 73.1801 63.7784 73.2326 62.271C73.2966 60.4259 73.9189 58.7285 74.8055 57.1199C74.8212 57.0903 74.8681 57.0776 74.8993 57.0565L74.8979 57.0579Z" fill="#70B156"/>
<path d="M15.1844 14.368C15.2004 14.3752 15.2295 14.3781 15.2324 14.3897C15.244 14.4286 15.2164 14.4473 15.1669 14.4358C15.1553 14.4329 15.148 14.4098 15.1393 14.3969C15.1553 14.3882 15.1698 14.3781 15.1858 14.3695L15.1844 14.368Z" fill="#CAC8BE"/>
<path d="M72.4129 34.5262C72.7908 33.3707 73.1702 32.2138 73.5467 31.0583C74.3765 28.5038 75.1978 25.9465 76.0418 23.3948C76.2108 22.8853 76.1938 22.4561 75.9324 21.9592C74.888 19.9734 73.9204 17.9467 72.8747 15.9608C71.6186 13.578 70.4308 11.1615 69.2088 8.76182C68.8565 8.06937 68.6362 7.34877 68.5908 6.55076C68.5211 5.30941 69.8568 4.34391 70.7661 4.31013C71.9156 4.26791 72.7425 4.78584 73.3322 5.70489C74.2131 7.07854 75.0614 8.47189 75.9224 9.8568C77.3859 12.2128 78.848 14.5703 80.3129 16.9249C81.1427 18.2577 81.981 19.5863 82.8022 20.9234C83.0608 21.3456 83.1901 21.8072 83.1986 22.3153C83.2171 23.3962 83.0992 24.4645 82.9685 25.5341C82.9017 26.0774 82.8917 26.6263 82.8378 27.1738C82.6715 28.8711 82.5479 30.5713 82.4371 32.2729C82.3277 33.9716 81.6016 35.4255 80.7576 36.8667C79.6238 38.8019 78.5766 40.7864 77.7155 42.8623C77.1841 44.1431 76.5575 45.383 75.9011 46.6047C75.6866 47.0044 75.6155 47.4013 75.7178 47.8376C75.7505 47.9755 75.769 48.1191 75.7661 48.2598C75.7306 50.1134 75.9537 51.9599 75.9167 53.8121C75.9125 54.0345 75.9281 54.2554 75.9736 54.4792C76.056 54.886 76.0048 54.9451 75.6084 55.1295C74.1975 55.7895 72.7866 56.4524 71.3757 57.1167C69.6493 57.9288 67.9258 58.7451 66.1995 59.5558C65.7306 59.7754 65.7291 59.7711 65.651 59.2419C65.3185 56.9746 65.0187 54.7016 64.6422 52.4413C64.3935 50.941 64.1577 49.4392 63.8479 47.9474C63.6192 46.8538 63.6405 45.7335 63.7712 44.6104C63.9076 43.4422 63.9573 42.2614 64.2785 41.1228C64.6592 39.773 65.0684 38.4304 65.472 37.0863C65.8513 35.8196 66.2421 34.5571 66.6186 33.2904C66.7223 32.94 66.7678 32.5797 66.7749 32.2081C66.8019 30.7852 66.8673 29.3609 66.9298 27.9394C66.9752 26.9035 66.9454 25.862 67.0406 24.8318C67.1372 23.7945 67.0932 22.7573 67.1614 21.7228C67.2083 21.0177 67.2523 20.3013 67.5152 19.6271C67.8022 18.8882 68.2597 18.3211 69.0767 18.1156C69.3566 18.0452 69.672 17.8369 69.9022 17.9087C70.5217 18.1029 71.1213 18.3816 71.5462 18.9206C72.214 19.7665 72.5322 20.7137 72.5862 21.7932C72.6502 23.0683 72.7525 24.3434 72.9088 25.6129C72.9983 26.3378 72.9841 27.0752 73.0736 27.8001C73.2753 29.4228 72.8477 30.9808 72.6303 32.5614C72.5408 33.2102 72.42 33.8548 72.3134 34.5022C72.3475 34.5093 72.3802 34.5163 72.4143 34.5233L72.4129 34.5262Z" fill="#C7C4BA"/>
<path d="M18.1558 41.4707C18.1345 41.0935 17.9498 40.774 17.7963 40.4419C17.2948 39.3497 16.7889 38.2604 16.357 37.1386C16.0742 36.4068 16.0146 35.6369 15.8668 34.8839C15.4846 32.9332 15.0825 30.9826 14.8054 29.0164C14.625 27.73 15.0157 26.5618 16.1339 25.7385C16.2319 25.6653 16.3584 25.6231 16.3939 25.495C16.482 25.1727 16.5119 25.388 16.5886 25.5034C16.6682 25.6217 16.8102 25.578 16.9282 25.5555C17.7082 25.4063 18.3476 25.678 18.8463 26.248C19.1944 26.6449 19.4957 27.0854 19.6591 27.6033C20.3013 29.6188 20.9521 31.6328 21.5943 33.6482C22.137 35.354 22.6187 37.0809 23.2283 38.7628C23.6005 39.7916 24.1533 40.7585 24.6406 41.7451C25.3368 43.154 26.0714 44.5431 26.7463 45.9604C27.5534 47.6535 28.2752 49.3818 28.6773 51.2213C28.852 52.0179 28.8847 52.8089 28.7966 53.6351C28.511 56.3429 27.9498 59.003 27.5065 61.6841C27.471 61.9023 27.3999 62.1162 27.3502 62.3175C27.2237 62.378 27.1314 62.3259 27.0433 62.2781C23.8861 60.5765 20.729 58.8763 17.5747 57.1691C17.1669 56.9481 17.1726 56.9313 17.2862 56.4654C17.3786 56.091 17.4525 55.7082 17.5818 55.3465C17.6926 55.034 17.6073 54.7962 17.4269 54.5527C15.8384 52.4289 14.3777 50.2122 12.7309 48.1306C12.0475 47.2665 11.3513 46.4079 10.5386 45.6578C9.48995 44.6895 8.81931 43.5171 8.34616 42.1814C7.38708 39.4778 6.36548 36.7952 5.3524 34.1099C4.93041 32.9895 5.00571 31.9016 5.34246 30.77C6.64965 26.3859 7.9199 21.9919 9.2001 17.6008C9.4729 16.6648 9.71729 15.719 10.0071 14.7873C10.3254 13.7669 10.9591 13.0548 12.0646 12.8155C13.3646 12.534 14.7116 13.5319 14.8111 14.8549C14.8779 15.7401 14.6988 16.5944 14.5283 17.4516C13.9643 20.2777 13.4002 23.1024 12.8332 25.9271C12.4866 27.6582 12.1413 29.3893 11.7775 31.1177C11.7008 31.4822 11.7434 31.782 11.9495 32.0972C13.6815 34.7418 15.3993 37.3962 17.1285 40.0436C17.4496 40.5362 17.7011 41.0766 18.1331 41.4932C18.1572 41.5115 18.1814 41.5298 18.2055 41.5481C18.2212 41.5087 18.2055 41.4834 18.1544 41.4707H18.1558Z" fill="#C7C4BA"/>
<path d="M74.1677 21.8034C73.7201 21.3418 73.5013 20.7408 73.1944 20.1961C71.6627 17.4826 70.1538 14.755 68.6377 12.0331C68.1518 11.1605 67.6587 10.2935 67.1898 9.41245C66.6357 8.37096 66.9568 7.27317 67.9685 6.67501C68.021 6.64405 68.085 6.64123 68.1731 6.71442C67.5536 7.32806 67.6914 8.01488 68.0139 8.71015C68.3478 9.43075 68.6846 10.1499 69.0298 10.8649C70.1097 13.1027 71.1981 15.3363 72.2765 17.5755C72.869 18.8042 73.4473 20.0399 74.0313 21.2728C74.1094 21.4375 74.2046 21.5994 74.1776 21.7936L74.1663 21.8034H74.1677Z" fill="#CAC8BE"/>
<path d="M13.3862 30.6206C13.254 30.0632 13.4302 29.6565 13.4956 29.2526C13.7868 27.4722 14.1236 25.6988 14.4433 23.9226C14.8852 21.4681 15.347 19.0164 15.7533 16.5548C15.8641 15.8862 15.9934 15.1642 15.3413 14.5281C15.8869 14.4971 16.1554 14.7814 16.387 15.0516C16.8516 15.5921 16.8758 16.2381 16.7152 16.8996C16.3401 18.4393 15.9551 19.9762 15.5857 21.5174C14.9108 24.3421 14.2444 27.1682 13.5723 29.9929C13.5311 30.166 13.4714 30.3349 13.3847 30.6206H13.3862Z" fill="#CAC8BE"/>
<path d="M66.2363 8.29944C65.7646 8.97641 65.9351 9.61538 66.2505 10.2698C67.3204 12.4879 68.3804 14.7131 69.4404 16.9368C69.4986 17.0578 69.5938 17.1747 69.5682 17.3168C69.4048 17.39 69.3736 17.269 69.3253 17.1916C68.0422 15.1353 66.7592 13.0791 65.4804 11.0214C64.8453 9.99961 65.155 8.823 66.2363 8.29944Z" fill="#C7C4BA"/>
<path d="M16.573 25.0323C16.4564 24.6086 16.6284 24.2399 16.6937 23.8697C17.0731 21.691 17.4894 19.5194 17.8702 17.3407C17.9839 16.6876 17.9341 16.0416 17.4155 15.4913C18.4002 15.6025 19.0737 16.6356 18.8222 17.6236C18.6119 18.4511 18.3576 19.2675 18.1189 20.088C17.694 21.5531 17.2692 23.0182 16.8372 24.4806C16.7832 24.6649 16.769 24.8803 16.5715 25.0323H16.573Z" fill="#C7C4BA"/>
<path d="M69.6466 17.5752L69.6802 17.5621L69.6758 17.5968L69.6466 17.5752Z" fill="#C7C4BA"/>
<path d="M140.68 49.5966H125.163L123.343 53.8535C123.006 54.6546 122.466 55.2802 121.726 55.7304C120.983 56.1806 120.191 56.4068 119.351 56.4068C118.947 56.4068 118.491 56.3328 117.985 56.1806C117.479 56.0306 117.008 55.779 116.57 55.4303C116.133 55.0794 115.762 54.6292 115.459 54.0775C115.156 53.528 115.004 52.8516 115.004 52.0506C115.004 51.4841 115.138 50.8986 115.407 50.2983L128.853 20.9081C129.695 19.1051 131.093 18.2047 133.048 18.2047C135.002 18.2047 136.468 19.1051 137.243 20.9081L150.436 50.2983C150.671 50.8669 150.79 51.4503 150.79 52.0506C150.79 53.2849 150.368 54.3206 149.527 55.1555C148.684 55.9904 147.658 56.4068 146.444 56.4068C145.601 56.4068 144.809 56.1806 144.069 55.7304C143.326 55.2802 142.789 54.6546 142.451 53.8535L140.682 49.5966H140.68ZM128.398 42.0868H137.597L133.048 31.1212L128.398 42.0868Z" fill="white"/>
<path d="M174.015 29.4219C175.581 30.1237 176.979 31.0917 178.21 32.3261C179.439 33.5605 180.442 35.0379 181.217 36.7563C181.991 38.4768 182.38 40.3537 182.38 42.3892C182.38 44.4246 181.991 46.2952 181.217 47.9967C180.442 49.6982 179.439 51.1756 178.21 52.4269C176.979 53.6782 175.581 54.6547 174.015 55.3564C172.449 56.0581 170.872 56.4069 169.289 56.4069C168.075 56.4069 167.04 56.2737 166.18 56.0053C165.32 55.739 164.596 55.4473 164.005 55.1302C163.416 54.8132 162.951 54.5215 162.616 54.2531C162.279 53.9868 162.027 53.8515 161.859 53.8515C161.656 53.8515 161.556 54.2023 161.556 54.902V62.0609C161.556 62.5935 161.455 63.0945 161.253 63.5637C161.05 64.0308 160.773 64.4409 160.418 64.7896C160.064 65.1405 159.644 65.4152 159.155 65.616C158.667 65.8168 158.152 65.9162 157.612 65.9162C156.533 65.9162 155.615 65.54 154.858 64.7896C154.1 64.0393 153.72 63.1283 153.72 62.0609V32.2204C153.72 31.153 154.1 30.242 154.858 29.4917C155.615 28.7413 156.533 28.3651 157.612 28.3651C158.521 28.3651 159.33 28.6652 160.039 29.2655C160.747 29.8658 161.184 30.5168 161.353 31.2185C161.453 31.153 161.682 30.9691 162.036 30.669C162.39 30.3688 162.896 30.0433 163.553 29.6925C164.21 29.3416 165.019 29.033 165.979 28.7667C166.939 28.5004 168.043 28.3651 169.291 28.3651C170.874 28.3651 172.449 28.716 174.017 29.4177L174.015 29.4219ZM174.041 39.8612C173.704 39.0771 173.241 38.3923 172.652 37.8089C172.063 37.2255 171.371 36.7669 170.58 36.4329C169.788 36.0989 168.937 35.932 168.028 35.932C167.119 35.932 166.276 36.0989 165.501 36.4329C164.727 36.7669 164.044 37.2255 163.455 37.8089C162.866 38.3923 162.401 39.0771 162.066 39.8612C161.729 40.6454 161.56 41.4888 161.56 42.3892C161.56 43.2896 161.729 44.1329 162.066 44.9171C162.403 45.7012 162.866 46.3861 163.455 46.9694C164.044 47.5528 164.727 48.0136 165.501 48.3454C166.276 48.6794 167.119 48.8464 168.028 48.8464C168.937 48.8464 169.788 48.6794 170.58 48.3454C171.371 48.0115 172.063 47.5528 172.652 46.9694C173.241 46.3861 173.704 45.7012 174.041 44.9171C174.378 44.1329 174.546 43.2896 174.546 42.3892C174.546 41.4888 174.378 40.6454 174.041 39.8612Z" fill="white"/>
<path d="M213.062 52.5009C213.062 53.5704 212.682 54.4877 211.925 55.255C211.167 56.0222 210.247 56.4069 209.17 56.4069C208.261 56.4069 207.452 56.1068 206.744 55.5065C206.035 54.9062 205.598 54.2552 205.429 53.5535C205.329 53.6211 205.092 53.8029 204.721 54.1051C204.35 54.4053 203.835 54.7308 203.18 55.0816C202.523 55.4325 201.723 55.7411 200.78 56.0074C199.837 56.2758 198.74 56.409 197.494 56.409C195.91 56.409 194.336 56.0581 192.767 55.3585C191.201 54.6568 189.801 53.6803 188.572 52.429C187.341 51.1777 186.34 49.7003 185.566 47.9988C184.791 46.2973 184.403 44.4267 184.403 42.3913C184.403 40.3558 184.789 38.4789 185.566 36.7584C186.34 35.04 187.343 33.5626 188.572 32.3282C189.801 31.0938 191.201 30.1258 192.767 29.4241C194.333 28.7223 195.908 28.3715 197.494 28.3715C198.74 28.3715 199.834 28.5046 200.78 28.7731C201.723 29.0415 202.523 29.348 203.18 29.6988C203.837 30.0497 204.35 30.3752 204.721 30.6753C205.092 30.9755 205.327 31.1594 205.429 31.2249C205.598 30.5232 206.035 29.8721 206.744 29.2719C207.452 28.6716 208.261 28.3715 209.17 28.3715C210.247 28.3715 211.167 28.7477 211.925 29.498C212.682 30.2484 213.062 31.1594 213.062 32.2268V52.5051V52.5009ZM196.205 36.4308C195.413 36.7648 194.722 37.2234 194.133 37.8068C193.544 38.3902 193.079 39.075 192.742 39.8591C192.404 40.6433 192.236 41.4866 192.236 42.3871C192.236 43.2875 192.404 44.1308 192.742 44.915C193.079 45.6991 193.542 46.384 194.133 46.9673C194.722 47.5507 195.413 48.0115 196.205 48.3433C196.996 48.6773 197.848 48.8443 198.757 48.8443C199.666 48.8443 200.509 48.6773 201.283 48.3433C202.058 48.0094 202.741 47.5507 203.33 46.9673C203.919 46.384 204.382 45.6991 204.719 44.915C205.056 44.1308 205.224 43.2875 205.224 42.3871C205.224 41.4866 205.056 40.6433 204.719 39.8591C204.382 39.075 203.919 38.3902 203.33 37.8068C202.741 37.2234 202.058 36.7648 201.283 36.4308C200.507 36.0968 199.666 35.9299 198.757 35.9299C197.848 35.9299 196.996 36.0968 196.205 36.4308Z" fill="white"/>
<path d="M226.505 47.595C226.505 47.7958 226.64 47.9882 226.911 48.1699C227.179 48.3538 227.517 48.5208 227.922 48.6709C228.325 48.8209 228.765 48.9456 229.236 49.0471C229.708 49.1464 230.128 49.1972 230.5 49.1972C231.577 49.1972 232.42 49.0555 233.026 48.7723C233.632 48.4891 234.146 48.1805 234.567 47.8465C234.987 47.5126 235.393 47.204 235.781 46.9208C236.167 46.6375 236.698 46.4959 237.373 46.4959C237.878 46.4959 238.376 46.6143 238.864 46.8468C239.353 47.0814 239.782 47.3815 240.153 47.7472C240.524 48.115 240.819 48.5398 241.039 49.0238C241.256 49.5079 241.367 50.0173 241.367 50.552C241.367 51.5201 240.979 52.3888 240.204 53.156C239.125 54.1579 237.744 55.0012 236.06 55.6839C234.375 56.3688 232.523 56.7112 230.5 56.7112C228.477 56.7112 226.642 56.3603 224.89 55.6607C223.138 54.959 221.604 53.9761 220.289 52.7058C218.975 51.4376 217.938 49.9264 217.18 48.1742C216.423 46.4219 216.043 44.4943 216.043 42.3912C216.043 40.2881 216.423 38.3605 217.18 36.6083C217.938 34.8561 218.975 33.3469 220.289 32.0766C221.604 30.8084 223.136 29.8235 224.89 29.1238C226.642 28.4221 228.511 28.0734 230.5 28.0734C232.017 28.0734 233.506 28.308 234.972 28.7751C236.438 29.2422 237.735 29.9101 238.864 30.7767C239.993 31.6454 240.902 32.679 241.593 33.8817C242.285 35.0843 242.63 36.435 242.63 37.9378C242.63 38.7727 242.453 39.4976 242.099 40.1148C241.745 40.732 241.182 41.1907 240.405 41.4908L227.211 46.9482C226.74 47.149 226.503 47.3667 226.503 47.5992L226.505 47.595ZM224.256 41.1103C224.373 41.1949 224.516 41.2351 224.685 41.2351C224.819 41.2351 224.988 41.2012 225.191 41.1357L233.378 37.7306C233.85 37.5298 234.087 37.2973 234.087 37.0289C234.087 36.6611 233.732 36.3272 233.026 36.027C232.318 35.7269 231.475 35.5768 230.5 35.5768C229.524 35.5768 228.697 35.7522 227.922 36.1031C227.145 36.454 226.473 36.8788 225.899 37.3798C225.325 37.8807 224.879 38.4302 224.559 39.0326C224.239 39.6329 224.079 40.1846 224.079 40.6855C224.079 40.8863 224.137 41.0279 224.256 41.1103Z" fill="white"/>
<path d="M119.417 70.1998C119.989 70.1998 120.486 70.2632 120.911 70.3879C121.335 70.5148 121.675 70.6479 121.926 70.7917C122.178 70.9333 122.332 71.0263 122.383 71.0707L121.506 72.5185C121.429 72.4572 121.299 72.3706 121.113 72.2585C120.928 72.1465 120.706 72.0472 120.448 71.9584C120.189 71.8696 119.908 71.8273 119.605 71.8273C119.167 71.8273 118.819 71.9098 118.557 72.0725C118.295 72.2374 118.164 72.4741 118.164 72.7827C118.164 72.992 118.235 73.178 118.373 73.3428C118.512 73.5077 118.717 73.6599 118.988 73.8036C119.259 73.9452 119.592 74.0953 119.985 74.2538C120.33 74.387 120.661 74.5413 120.975 74.7167C121.288 74.8921 121.57 75.0993 121.817 75.336C122.065 75.5748 122.261 75.8496 122.409 76.1624C122.556 76.4753 122.628 76.8346 122.628 77.2383C122.628 77.6906 122.537 78.0837 122.351 78.4219C122.165 78.7601 121.911 79.0433 121.587 79.2716C121.263 79.4999 120.891 79.6711 120.475 79.7852C120.057 79.8994 119.62 79.9564 119.159 79.9564C118.536 79.9564 117.974 79.8846 117.477 79.7387C116.98 79.5929 116.579 79.4386 116.272 79.2716C115.964 79.1046 115.785 78.9989 115.732 78.9503L116.654 77.4454C116.711 77.4877 116.82 77.5574 116.982 77.6526C117.142 77.7477 117.341 77.8449 117.573 77.9442C117.806 78.0436 118.06 78.1302 118.337 78.2C118.612 78.2719 118.894 78.3078 119.182 78.3078C119.701 78.3078 120.091 78.2 120.356 77.9865C120.62 77.773 120.753 77.494 120.753 77.1516C120.753 76.8938 120.669 76.6697 120.501 76.4753C120.332 76.2808 120.095 76.1011 119.792 75.9363C119.487 75.7714 119.125 75.6044 118.702 75.4332C118.28 75.2578 117.887 75.0528 117.524 74.816C117.161 74.5793 116.871 74.2897 116.649 73.9452C116.427 73.6007 116.319 73.1758 116.319 72.6728C116.319 72.1698 116.462 71.7386 116.748 71.3687C117.033 70.9967 117.413 70.7092 117.885 70.5063C118.356 70.3034 118.871 70.1998 119.421 70.1998H119.417Z" fill="white"/>
<path d="M128.234 79.7837V78.765C128.191 78.8685 128.08 79.0165 127.903 79.2067C127.726 79.3969 127.487 79.5703 127.186 79.7246C126.885 79.8789 126.536 79.9571 126.132 79.9571C125.565 79.9571 125.063 79.8218 124.628 79.5534C124.193 79.2849 123.849 78.9172 123.602 78.4479C123.354 77.9787 123.23 77.4503 123.23 76.8606C123.23 76.2709 123.354 75.7424 123.602 75.2732C123.849 74.804 124.19 74.4362 124.628 74.1636C125.065 73.893 125.567 73.7577 126.132 73.7577C126.525 73.7577 126.868 73.8233 127.159 73.9543C127.449 74.0854 127.684 74.2375 127.865 74.4109C128.044 74.5842 128.161 74.7406 128.215 74.878V73.9289H130.029V79.7837H128.236H128.234ZM124.282 72.7326C124.329 72.4769 124.417 72.2105 124.54 71.9379C124.664 71.6652 124.831 71.4327 125.038 71.2425C125.245 71.0523 125.488 70.9572 125.772 70.9572C126.075 70.9572 126.335 71.0015 126.553 71.0924C126.77 71.1833 126.977 71.2721 127.169 71.3609C127.361 71.4496 127.564 71.4919 127.782 71.4919C127.931 71.4919 128.053 71.4306 128.144 71.3101C128.238 71.1897 128.3 71.0713 128.328 70.9572H129.393C129.344 71.2129 129.256 71.4792 129.13 71.7519C129.002 72.0245 128.836 72.257 128.631 72.4473C128.424 72.6375 128.181 72.7326 127.897 72.7326C127.6 72.7326 127.34 72.6882 127.12 72.5973C126.9 72.5065 126.693 72.4198 126.501 72.3331C126.309 72.2486 126.111 72.2042 125.904 72.2042C125.761 72.2042 125.639 72.2634 125.543 72.3817C125.447 72.5001 125.383 72.6164 125.349 72.7305H124.284L124.282 72.7326ZM125.025 76.8606C125.025 77.1882 125.099 77.4778 125.249 77.7272C125.398 77.9766 125.595 78.171 125.84 78.3084C126.085 78.4458 126.35 78.5156 126.638 78.5156C126.941 78.5156 127.21 78.4458 127.445 78.3042C127.679 78.1626 127.865 77.9681 128.001 77.7187C128.138 77.4693 128.206 77.1818 128.206 76.8585C128.206 76.5351 128.138 76.2497 128.001 75.9982C127.865 75.7488 127.679 75.5522 127.445 75.4106C127.21 75.269 126.941 75.1971 126.638 75.1971C126.335 75.1971 126.083 75.2669 125.84 75.4085C125.597 75.5501 125.398 75.7446 125.249 75.994C125.099 76.2434 125.025 76.533 125.025 76.8606Z" fill="white"/>
<path d="M134.002 79.9559C133.372 79.9559 132.813 79.8227 132.32 79.5564C131.827 79.2901 131.443 78.9265 131.164 78.4615C130.886 77.9986 130.745 77.4702 130.745 76.8742C130.745 76.2781 130.884 75.7497 131.164 75.2805C131.443 74.8113 131.827 74.4414 132.32 74.1687C132.811 73.8961 133.372 73.7587 134.002 73.7587C134.631 73.7587 135.195 73.8961 135.679 74.1687C136.163 74.4414 136.543 74.8134 136.816 75.2805C137.089 75.7497 137.226 76.2802 137.226 76.8742C137.226 77.4681 137.089 77.9965 136.816 78.4615C136.543 78.9244 136.163 79.2901 135.679 79.5564C135.195 79.8227 134.635 79.9559 134.002 79.9559ZM134.002 78.4531C134.305 78.4531 134.567 78.3854 134.789 78.2502C135.013 78.1149 135.184 77.9268 135.308 77.6858C135.429 77.4449 135.491 77.1743 135.491 76.87C135.491 76.5656 135.429 76.2929 135.308 76.0499C135.186 75.8068 135.013 75.6166 134.789 75.4749C134.565 75.3333 134.303 75.2636 134.002 75.2636C133.701 75.2636 133.436 75.3333 133.214 75.4749C132.992 75.6166 132.817 75.8068 132.692 76.0499C132.566 76.2929 132.504 76.5656 132.504 76.87C132.504 77.1743 132.566 77.447 132.692 77.6858C132.815 77.9268 132.99 78.1128 133.214 78.2502C133.438 78.3854 133.701 78.4531 134.002 78.4531Z" fill="white"/>
<path d="M145.554 76.9035C145.554 77.5397 145.441 78.0871 145.215 78.5436C144.989 79.0002 144.662 79.3489 144.236 79.592C143.809 79.8351 143.295 79.9556 142.695 79.9556C142.249 79.9556 141.867 79.8964 141.547 79.7801C141.227 79.6639 140.975 79.5371 140.792 79.3997C140.606 79.2623 140.493 79.1587 140.45 79.0932L141.148 77.5523C141.206 77.6327 141.289 77.7278 141.4 77.8335C141.511 77.9413 141.652 78.0321 141.825 78.1125C141.997 78.1907 142.204 78.2308 142.443 78.2308C142.721 78.2308 142.958 78.1716 143.152 78.0533C143.346 77.9349 143.495 77.7531 143.598 77.508C143.7 77.2628 143.753 76.9584 143.753 76.5927V70.3744H145.552V76.9056L145.554 76.9035Z" fill="white"/>
<path d="M149.572 79.9559C148.943 79.9559 148.383 79.8227 147.891 79.5564C147.398 79.2901 147.014 78.9265 146.734 78.4615C146.457 77.9986 146.316 77.4702 146.316 76.8742C146.316 76.2781 146.454 75.7497 146.734 75.2805C147.014 74.8113 147.398 74.4414 147.891 74.1687C148.381 73.8961 148.943 73.7587 149.572 73.7587C150.201 73.7587 150.765 73.8961 151.249 74.1687C151.734 74.4414 152.113 74.8134 152.387 75.2805C152.66 75.7497 152.796 76.2802 152.796 76.8742C152.796 77.4681 152.66 77.9965 152.387 78.4615C152.113 78.9244 151.734 79.2901 151.249 79.5564C150.765 79.8227 150.206 79.9559 149.572 79.9559ZM149.572 78.4531C149.875 78.4531 150.137 78.3854 150.359 78.2502C150.583 78.1149 150.754 77.9268 150.878 77.6858C151 77.4449 151.061 77.1743 151.061 76.87C151.061 76.5656 151 76.2929 150.878 76.0499C150.756 75.8068 150.583 75.6166 150.359 75.4749C150.135 75.3333 149.873 75.2636 149.572 75.2636C149.271 75.2636 149.007 75.3333 148.785 75.4749C148.563 75.6166 148.388 75.8068 148.262 76.0499C148.136 76.2929 148.074 76.5656 148.074 76.87C148.074 77.1743 148.136 77.447 148.262 77.6858C148.386 77.9268 148.561 78.1128 148.785 78.2502C149.009 78.3854 149.271 78.4531 149.572 78.4531Z" fill="white"/>
<path d="M158.24 79.7837V78.765C158.197 78.8685 158.086 79.0165 157.909 79.2067C157.732 79.3969 157.493 79.5703 157.192 79.7246C156.891 79.8789 156.541 79.9571 156.138 79.9571C155.57 79.9571 155.069 79.8218 154.634 79.5534C154.198 79.2849 153.855 78.9172 153.607 78.4479C153.36 77.9787 153.236 77.4503 153.236 76.8606C153.236 76.2709 153.36 75.7424 153.607 75.2732C153.855 74.804 154.196 74.4362 154.634 74.1636C155.071 73.893 155.573 73.7577 156.138 73.7577C156.531 73.7577 156.874 73.8233 157.164 73.9543C157.455 74.0854 157.689 74.2375 157.871 74.4109C158.05 74.5842 158.167 74.7406 158.221 74.878V73.9289H160.034V79.7837H158.242H158.24ZM154.288 72.7326C154.335 72.4769 154.422 72.2105 154.546 71.9379C154.67 71.6652 154.836 71.4327 155.043 71.2425C155.25 71.0523 155.494 70.9572 155.777 70.9572C156.08 70.9572 156.341 71.0015 156.558 71.0924C156.776 71.1833 156.983 71.2721 157.175 71.3609C157.367 71.4496 157.57 71.4919 157.787 71.4919C157.937 71.4919 158.058 71.4306 158.15 71.3101C158.244 71.1897 158.306 71.0713 158.334 70.9572H159.398C159.349 71.2129 159.262 71.4792 159.136 71.7519C159.008 72.0245 158.842 72.257 158.637 72.4473C158.43 72.6375 158.186 72.7326 157.903 72.7326C157.606 72.7326 157.346 72.6882 157.126 72.5973C156.906 72.5065 156.699 72.4198 156.507 72.3331C156.315 72.2486 156.117 72.2042 155.91 72.2042C155.767 72.2042 155.645 72.2634 155.549 72.3817C155.453 72.5001 155.389 72.6164 155.355 72.7305H154.29L154.288 72.7326ZM155.028 76.8606C155.028 77.1882 155.103 77.4778 155.252 77.7272C155.402 77.9766 155.598 78.171 155.844 78.3084C156.089 78.4458 156.353 78.5156 156.642 78.5156C156.945 78.5156 157.213 78.4458 157.448 78.3042C157.683 78.1626 157.869 77.9681 158.005 77.7187C158.142 77.4693 158.21 77.1818 158.21 76.8585C158.21 76.5351 158.142 76.2497 158.005 75.9982C157.869 75.7488 157.683 75.5522 157.448 75.4106C157.213 75.269 156.945 75.1971 156.642 75.1971C156.339 75.1971 156.087 75.2669 155.844 75.4085C155.6 75.5501 155.402 75.7446 155.252 75.994C155.103 76.2434 155.028 76.533 155.028 76.8606Z" fill="white"/>
<path d="M164.005 79.9559C163.376 79.9559 162.817 79.8227 162.324 79.5564C161.831 79.2901 161.447 78.9265 161.167 78.4615C160.89 77.9986 160.749 77.4702 160.749 76.8742C160.749 76.2781 160.888 75.7497 161.167 75.2805C161.447 74.8113 161.831 74.4414 162.324 74.1687C162.815 73.8961 163.376 73.7587 164.005 73.7587C164.635 73.7587 165.198 73.8961 165.683 74.1687C166.167 74.4414 166.547 74.8134 166.82 75.2805C167.093 75.7497 167.23 76.2802 167.23 76.8742C167.23 77.4681 167.093 77.9965 166.82 78.4615C166.547 78.9244 166.167 79.2901 165.683 79.5564C165.198 79.8227 164.639 79.9559 164.005 79.9559ZM164.005 78.4531C164.308 78.4531 164.571 78.3854 164.793 78.2502C165.017 78.1149 165.188 77.9268 165.311 77.6858C165.433 77.4449 165.495 77.1743 165.495 76.87C165.495 76.5656 165.433 76.2929 165.311 76.0499C165.19 75.8068 165.017 75.6166 164.793 75.4749C164.569 75.3333 164.306 75.2636 164.005 75.2636C163.704 75.2636 163.44 75.3333 163.218 75.4749C162.996 75.6166 162.821 75.8068 162.695 76.0499C162.569 76.2929 162.507 76.5656 162.507 76.87C162.507 77.1743 162.569 77.447 162.695 77.6858C162.819 77.9268 162.994 78.1128 163.218 78.2502C163.442 78.3854 163.704 78.4531 164.005 78.4531Z" fill="white"/>
<path d="M173.883 79.9567C173.322 79.9567 172.829 79.8214 172.404 79.553C171.98 79.2845 171.649 78.9168 171.41 78.4475C171.173 77.9783 171.054 77.4499 171.054 76.8602C171.054 76.2705 171.173 75.7421 171.41 75.2728C171.647 74.8036 171.98 74.4358 172.404 74.1632C172.829 73.8926 173.322 73.7573 173.883 73.7573C174.282 73.7573 174.634 73.8208 174.946 73.9497C175.257 74.0786 175.503 74.2308 175.69 74.4062C175.878 74.5817 175.987 74.7381 176.021 74.8776V69.9718H177.856V79.7834H176.042V78.7646C175.966 78.9316 175.825 79.107 175.618 79.293C175.411 79.479 175.159 79.6354 174.862 79.7643C174.566 79.8933 174.239 79.9567 173.883 79.9567ZM174.402 78.5173C174.709 78.5173 174.984 78.4475 175.229 78.3059C175.475 78.1664 175.667 77.9698 175.81 77.7204C175.951 77.471 176.023 77.1836 176.023 76.8602C176.023 76.5368 175.953 76.2514 175.81 75.9999C175.669 75.7505 175.475 75.5539 175.229 75.4123C174.984 75.2707 174.709 75.1989 174.402 75.1989C174.118 75.1989 173.86 75.2686 173.625 75.4102C173.39 75.5518 173.2 75.7463 173.059 75.9957C172.919 76.2451 172.846 76.5347 172.846 76.8623C172.846 77.1899 172.916 77.4795 173.059 77.7289C173.202 77.9783 173.39 78.1728 173.625 78.3101C173.86 78.4475 174.12 78.5173 174.402 78.5173Z" fill="white"/>
<path d="M180.094 77.2619C180.109 77.5282 180.182 77.7649 180.31 77.9742C180.438 78.1834 180.628 78.3483 180.875 78.4667C181.123 78.585 181.421 78.6442 181.771 78.6442C182.079 78.6442 182.352 78.6062 182.589 78.5301C182.826 78.454 183.028 78.361 183.193 78.2511C183.359 78.1412 183.478 78.0334 183.555 77.9234L184.319 79.0289C184.18 79.2001 183.999 79.3565 183.779 79.496C183.56 79.6355 183.276 79.7475 182.934 79.83C182.591 79.9124 182.162 79.9547 181.65 79.9547C181.001 79.9547 180.433 79.8278 179.943 79.5763C179.452 79.3248 179.07 78.9612 178.795 78.4857C178.519 78.0101 178.381 77.4436 178.381 76.7884C178.381 76.2177 178.504 75.7041 178.752 75.2455C179 74.7868 179.356 74.4232 179.825 74.1569C180.293 73.8906 180.856 73.7574 181.513 73.7574C182.132 73.7574 182.668 73.8758 183.122 74.1104C183.577 74.345 183.927 74.6896 184.176 75.1419C184.426 75.5942 184.552 76.1459 184.552 76.7969C184.552 76.8349 184.552 76.9131 184.547 77.0315C184.545 77.1498 184.539 77.2259 184.528 77.2598H180.094V77.2619ZM182.838 76.1438C182.834 75.9916 182.787 75.8267 182.697 75.6513C182.608 75.4758 182.469 75.3258 182.279 75.2011C182.089 75.0764 181.842 75.0151 181.535 75.0151C181.227 75.0151 180.967 75.0764 180.768 75.1968C180.57 75.3173 180.421 75.4632 180.323 75.6344C180.224 75.8056 180.165 75.9747 180.145 76.1416H182.838V76.1438Z" fill="white"/>
<path d="M187.2 79.7853H185.365V69.9738H187.2V79.7853Z" fill="white"/>
<path d="M191.606 70.3732H195.264C195.801 70.3732 196.284 70.4831 196.71 70.705C197.137 70.9269 197.476 71.2461 197.728 71.6667C197.98 72.0873 198.106 72.5946 198.106 73.1885C198.106 73.7825 197.995 74.2623 197.775 74.6406C197.555 75.019 197.289 75.3022 196.979 75.4924C196.67 75.6827 196.382 75.7926 196.119 75.82L198.452 79.7852H196.422L194.312 75.9553H193.399V79.7852H191.606V70.3732ZM193.399 74.7019H194.623C195.08 74.7019 195.466 74.5899 195.786 74.3659C196.106 74.1418 196.264 73.7677 196.264 73.2393C196.264 72.7109 196.106 72.3389 195.788 72.1233C195.473 71.9077 195.089 71.7999 194.636 71.7999H193.399V74.7019Z" fill="white"/>
<path d="M200.857 77.2619C200.871 77.5282 200.944 77.7649 201.072 77.9742C201.2 78.1834 201.39 78.3483 201.637 78.4667C201.885 78.585 202.184 78.6442 202.534 78.6442C202.841 78.6442 203.114 78.6062 203.351 78.5301C203.588 78.454 203.791 78.361 203.955 78.2511C204.121 78.1412 204.241 78.0334 204.318 77.9234L205.081 79.0289C204.943 79.2001 204.761 79.3565 204.542 79.496C204.322 79.6355 204.038 79.7475 203.697 79.83C203.353 79.9124 202.924 79.9547 202.412 79.9547C201.763 79.9547 201.196 79.8278 200.705 79.5763C200.214 79.3248 199.832 78.9612 199.557 78.4857C199.282 78.0101 199.143 77.4436 199.143 76.7884C199.143 76.2177 199.267 75.7041 199.514 75.2455C199.762 74.7868 200.118 74.4232 200.588 74.1569C201.055 73.8906 201.618 73.7574 202.276 73.7574C202.894 73.7574 203.43 73.8758 203.884 74.1104C204.339 74.345 204.689 74.6896 204.939 75.1419C205.188 75.5942 205.314 76.1459 205.314 76.7969C205.314 76.8349 205.314 76.9131 205.31 77.0315C205.308 77.1498 205.301 77.2259 205.291 77.2598H200.857V77.2619ZM203.598 76.1438C203.594 75.9916 203.547 75.8267 203.458 75.6513C203.368 75.4758 203.229 75.3258 203.039 75.2011C202.85 75.0764 202.602 75.0151 202.295 75.0151C201.987 75.0151 201.727 75.0764 201.529 75.1968C201.33 75.3173 201.181 75.4632 201.083 75.6344C200.985 75.8056 200.925 75.9747 200.906 76.1416H203.598V76.1438Z" fill="white"/>
<path d="M207.147 72.4189C206.844 72.4189 206.59 72.3154 206.381 72.1061C206.172 71.8969 206.068 71.6474 206.068 71.3579C206.068 71.0683 206.172 70.8168 206.383 70.6012C206.595 70.3856 206.848 70.2799 207.147 70.2799C207.344 70.2799 207.525 70.3285 207.687 70.4257C207.849 70.523 207.982 70.654 208.082 70.8147C208.182 70.9753 208.233 71.1571 208.233 71.3558C208.233 71.6453 208.127 71.8947 207.913 72.104C207.7 72.3132 207.444 72.4168 207.147 72.4168V72.4189ZM206.213 79.785V73.9302H208.035V79.785H206.213Z" fill="white"/>
<path d="M211.942 77.3112V75.764H218.011V77.3112H211.942Z" fill="white"/>
<path d="M231.342 70.3732V79.7852H229.55V73.7592L229.637 72.3896L229.313 73.9431L227.448 79.1131H225.677L223.821 73.9431L223.505 72.3896L223.584 73.7592V79.7852H221.785V70.3732H224.275L226.449 77.084L226.565 77.7266L226.68 77.084L228.861 70.3732H231.344H231.342Z" fill="white"/>
<path d="M237.102 74.5828H241.924V75.1472C241.924 75.8172 241.809 76.4428 241.583 77.0262C241.355 77.6095 241.03 78.1189 240.608 78.5586C240.185 78.9982 239.686 79.3427 239.108 79.5879C238.529 79.8352 237.891 79.9599 237.196 79.9599C236.5 79.9599 235.828 79.8331 235.237 79.5816C234.646 79.3301 234.138 78.9813 233.711 78.5332C233.284 78.0872 232.954 77.5673 232.721 76.9755C232.488 76.3836 232.371 75.7495 232.371 75.0753C232.371 74.401 232.486 73.7733 232.721 73.1815C232.954 72.5896 233.284 72.0718 233.711 71.6279C234.138 71.1841 234.648 70.8353 235.237 70.5838C235.828 70.3323 236.481 70.2054 237.196 70.2054C237.748 70.2054 238.239 70.2646 238.672 70.383C239.105 70.5014 239.483 70.662 239.805 70.8649C240.128 71.0678 240.409 71.2897 240.648 71.5349C240.885 71.7801 241.084 72.0253 241.241 72.2726L239.558 73.0863C239.327 72.7545 239.022 72.4692 238.64 72.2303C238.258 71.9936 237.778 71.8731 237.198 71.8731C236.767 71.8731 236.368 71.9577 236.007 72.1267C235.644 72.2958 235.333 72.5283 235.07 72.8221C234.808 73.1159 234.605 73.4583 234.462 73.8451C234.319 74.2319 234.247 74.642 234.247 75.0753C234.247 75.5086 234.319 75.925 234.462 76.3097C234.607 76.6943 234.808 77.0368 235.07 77.3327C235.333 77.6307 235.644 77.8611 236.007 78.0281C236.37 78.195 236.767 78.2775 237.198 78.2775C237.59 78.2775 237.949 78.2204 238.271 78.1063C238.593 77.9921 238.873 77.8315 239.11 77.6222C239.347 77.413 239.536 77.1678 239.675 76.8846C239.814 76.6013 239.893 76.297 239.912 75.9694H237.104V74.587L237.102 74.5828Z" fill="white"/>
</svg>
