<svg width="196" height="77" viewBox="0 0 196 77" fill="none" xmlns="http://www.w3.org/2000/svg">
<path d="M35.3354 21.3115C32.9351 21.2401 31.0187 20.2678 29.7396 18.2256C28.0658 15.5522 28.7465 12.1161 31.2864 10.1601C34.0826 8.00682 38.1774 8.43407 40.4564 11.1188C43.1599 14.3033 41.9266 19.1583 38.0012 20.7914C37.1511 21.1449 36.269 21.3353 35.3366 21.3115H35.3354ZM31.8928 11.0383C31.9786 11.0451 32.0541 11.0304 32.0999 10.9488C32.2189 10.8944 32.3402 10.8434 32.4557 10.7834C33.6113 10.185 34.8263 10.0127 36.1065 10.2598C38.5377 10.729 40.2882 12.8584 40.2573 15.3063C40.2482 15.9896 40.0628 16.6288 39.8123 17.2555C39.6658 17.4946 39.5182 17.7338 39.3718 17.974C39.6704 17.855 39.8226 17.6284 39.9336 17.3689C40.6177 16.3308 40.834 15.1782 40.6177 13.9815C39.9084 10.0456 35.2851 8.55306 32.2589 10.7358C32.1846 10.789 32.0782 10.8298 32.1045 10.9568C32.0118 10.933 31.9477 10.9715 31.8985 11.0463C31.8871 11.0542 31.8745 11.061 31.8642 11.0712C31.8596 11.0757 31.8608 11.0871 31.8585 11.095L31.8894 11.0395L31.8928 11.0383Z" fill="#FBBA0E"/>
<path d="M34.6776 33.5829C34.4179 33.465 34.1296 33.4729 33.8596 33.3993C32.7521 33.0944 31.8299 32.5255 31.1904 31.5634C30.679 30.7927 30.4879 29.9507 30.695 29.0328C31.0417 27.4994 31.3643 25.9616 31.7213 24.4316C32.0427 23.0547 33.0942 22.156 34.5323 21.9554C35.1455 21.8693 35.7553 21.8806 36.3594 21.9906C37.2575 22.1537 37.9314 22.6343 38.3628 23.4468C38.7334 24.1449 38.8215 24.911 38.9451 25.6692C39.1362 26.8319 39.3169 27.9969 39.5011 29.1608C39.5755 29.6334 39.5847 30.1082 39.5046 30.5797C39.2803 31.9068 38.4554 32.7329 37.2221 33.1919C36.8525 33.329 36.4601 33.4072 36.0791 33.5126C35.6112 33.5171 35.1467 33.6169 34.6765 33.584L34.6776 33.5829Z" fill="#FFDD0C"/>
<path d="M42.6314 19.1013C43.2675 19.0843 43.8224 19.2736 44.3361 19.5988C45.479 20.3207 46.6002 21.0812 47.7706 21.7555C49.2523 22.6088 49.7865 24.1795 49.3404 25.7333C48.7855 27.6644 47.4629 28.8475 45.4882 29.2872C44.5683 29.4924 43.7583 29.1943 43.0398 28.6265C42.7412 28.3908 42.4803 28.1154 42.2561 27.8094C41.4392 26.6966 40.6246 25.5825 39.81 24.4674C39.4862 24.0254 39.2505 23.5449 39.1235 23.0089C38.9931 22.4592 39.0366 21.9243 39.2906 21.4291C39.7528 20.5281 40.4473 19.8391 41.3568 19.3767C41.7584 19.1727 42.1955 19.0786 42.6325 19.1002L42.6314 19.1013Z" fill="#FFDD0C"/>
<path d="M28.1173 19.1017C28.4674 19.0927 28.8118 19.1369 29.1367 19.2706C30.2396 19.7262 31.0336 20.5093 31.5279 21.5757C31.8025 22.1695 31.7452 22.7894 31.5256 23.3969C31.3791 23.8014 31.1721 24.1709 30.9169 24.5177C30.1183 25.6033 29.3301 26.6958 28.5246 27.777C27.9491 28.5499 27.2409 29.1358 26.2456 29.308C25.6712 29.4078 25.1163 29.3318 24.5923 29.121C22.7938 28.3991 21.5948 27.1491 21.3191 25.1965C21.1246 23.823 21.5765 22.6727 22.7927 21.8941C24.0008 21.1212 25.217 20.3597 26.4298 19.5947C26.9435 19.2706 27.4995 19.0847 28.1162 19.1029L28.1173 19.1017Z" fill="#FFDD0C"/>
<path d="M28.2317 16.0732C28.2191 16.3022 28.2237 16.5333 28.1894 16.7589C28.0041 17.9522 27.3061 18.6684 26.0087 18.9234C25.0042 19.1206 23.9883 19.2589 22.9769 19.4153C22.4712 19.4935 21.9712 19.6079 21.4541 19.6068C20.1006 19.6034 19.1533 18.9778 18.6625 17.7244C18.1591 16.4381 18.1625 15.1587 18.8307 13.9257C19.3238 13.0179 20.0583 12.3923 21.1074 12.1849C21.4198 12.1226 21.731 12.1192 22.0421 12.1872C23.3819 12.4773 24.7251 12.755 26.0602 13.0644C27.3382 13.3602 28.1574 14.3756 28.2134 15.6788C28.2191 15.8092 28.2134 15.9406 28.2134 16.0721H28.2294L28.2317 16.0732Z" fill="#FFDD0C"/>
<path d="M42.541 16.0526C42.5444 15.775 42.5445 15.4996 42.6039 15.2219C42.8522 14.0592 43.5696 13.335 44.7182 13.0596C45.987 12.7559 47.2684 12.5089 48.5407 12.221C49.528 11.9978 50.385 12.2584 51.1138 12.91C52.1583 13.8439 52.5427 15.0429 52.4169 16.413C52.378 16.838 52.2842 17.2528 52.132 17.6551C51.5565 19.1748 50.3335 19.7755 48.7912 19.5749C47.5625 19.4162 46.3417 19.1997 45.1187 19.0037C44.891 18.9674 44.6645 18.913 44.4448 18.845C43.1646 18.4518 42.5536 17.6313 42.5422 16.2985C42.5422 16.217 42.5422 16.1342 42.5422 16.0526H42.541Z" fill="#FFDD0C"/>
<path d="M31.0279 0.314014C31.942 0.310614 32.585 0.482873 33.1559 0.88972C33.6307 1.22744 33.9545 1.67395 34.0883 2.23719C34.3732 3.43167 34.6581 4.62614 34.9201 5.82515C35.094 6.62072 34.8537 7.32448 34.2931 7.90245C33.7737 8.43736 33.1044 8.73315 32.3814 8.87594C31.6457 9.021 31.0096 8.77961 30.4833 8.26057C30.3197 8.09965 30.1687 7.92285 30.0371 7.73586C29.4124 6.84964 28.7957 5.95775 28.1802 5.06586C27.8976 4.65674 27.686 4.21703 27.6162 3.71725C27.5258 3.06788 27.6631 2.47178 28.0635 1.95614C28.8621 0.922585 29.9204 0.361612 31.0279 0.314014Z" fill="#FFDD0C"/>
<path d="M39.4943 0.323494C40.8191 0.354093 41.8832 0.9094 42.684 1.94182C43.2309 2.64672 43.2995 3.44115 43.0044 4.26844C42.8991 4.56196 42.7435 4.83281 42.5639 5.0912C41.9529 5.96723 41.3454 6.84552 40.7345 7.72155C40.659 7.82921 40.5766 7.93233 40.4908 8.03206C39.7265 8.91942 38.8238 9.13588 37.7324 8.68823C37.3651 8.53751 37.0047 8.37205 36.6981 8.11479C35.9682 7.50396 35.6478 6.73219 35.8457 5.79724C36.0826 4.67642 36.3469 3.56127 36.6146 2.44726C36.9178 1.18705 37.8765 0.407357 39.198 0.325761C39.2963 0.320094 39.3959 0.325761 39.4954 0.325761L39.4943 0.323494Z" fill="#FFDD0C"/>
<path d="M27.3692 12.537C26.9905 12.5506 26.6358 12.4735 26.296 12.3387C25.2228 11.9126 24.1451 11.4955 23.0822 11.0445C21.818 10.5084 21.2219 9.54289 21.3832 8.29855C21.4976 7.41686 21.8512 6.62809 22.477 5.97872C23.0548 5.38035 23.7515 5.0007 24.5959 4.91004C25.343 4.83071 26.0134 5.0109 26.5649 5.51861C27.4493 6.33231 28.3233 7.15734 29.1849 7.9937C29.9422 8.72919 30.123 9.75255 29.6848 10.7079C29.4926 11.1261 29.2592 11.5227 28.9412 11.8638C28.5144 12.3217 27.9996 12.5744 27.3669 12.537H27.3692Z" fill="#FFDD0C"/>
<path d="M43.3795 12.5376C42.7606 12.5626 42.2606 12.3393 41.8613 11.9075C41.4209 11.4316 41.0822 10.891 40.922 10.2563C40.7138 9.42792 40.898 8.67769 41.4986 8.07818C42.3956 7.18403 43.3155 6.31027 44.2616 5.46711C44.9573 4.8472 45.8096 4.74861 46.6837 5.01153C48.1127 5.44217 48.9158 6.46326 49.29 7.85266C49.4147 8.31617 49.4444 8.78988 49.33 9.26133C49.1081 10.1714 48.4754 10.7142 47.6436 11.0587C46.6688 11.4633 45.6849 11.8486 44.7056 12.2419C44.614 12.2793 44.5225 12.3178 44.4298 12.3518C44.0855 12.4742 43.7331 12.5546 43.3807 12.5365L43.3795 12.5376Z" fill="#FFDD0C"/>
<path d="M35.3447 62.7423C35.6765 62.2799 36.125 62.1689 36.5998 62.1655C38.2404 62.153 39.8754 62.0363 41.5034 61.8504C46.7136 61.2555 51.7157 59.9794 56.2978 57.357C58.9075 55.8622 61.1842 53.9866 62.9541 51.5433C63.0125 51.4628 63.0605 51.3755 63.1269 51.303C63.4118 50.9925 63.4289 50.6865 63.2688 50.2796C62.8546 49.228 63.0148 48.1842 63.4736 47.1767C64.0879 45.8293 65.081 44.7821 66.2057 43.8449C66.3681 43.7089 66.5192 43.5525 66.7331 43.4766C66.8979 43.6454 66.8784 43.8709 66.9207 44.0715C67.1736 45.2671 67.296 46.4718 67.0786 47.6856C66.8292 49.075 66.1633 50.1686 64.8087 50.7624C64.5502 50.8757 64.2813 50.9653 64.0033 51.0027C63.8053 51.0299 63.6772 51.1047 63.5697 51.2735C61.421 54.6654 58.38 57.0612 54.8482 58.8971C51.7168 60.5256 48.3829 61.5728 44.9208 62.2403C42.6921 62.6698 40.4428 62.9384 38.1741 63.0438C37.7759 63.0619 37.3847 63.1276 37.0105 63.2738C36.5048 63.471 36.0724 63.8813 36.0758 64.6338C36.0918 68.2761 36.0838 71.9185 36.0827 75.5608C36.0827 75.7082 36.0918 75.8578 36.0758 76.004C36.0358 76.3643 35.7383 76.6556 35.3974 76.6839C35.0702 76.7111 34.7109 76.4573 34.6274 76.1071C34.5862 75.9348 34.5908 75.749 34.5908 75.5699C34.5885 71.9434 34.5896 68.3181 34.5896 64.6916C34.5896 63.8586 34.3036 63.4699 33.497 63.2104C33.1481 63.0982 32.7877 63.0551 32.4227 63.037C28.9057 62.8625 25.4471 62.3287 22.0629 61.3529C19.1397 60.5098 16.3573 59.347 13.783 57.7242C11.1242 56.048 8.84053 53.9843 7.14841 51.3223C7.05116 51.1681 6.95963 51.0457 6.74797 51.0004C5.05356 50.64 4.08909 49.5543 3.72641 47.9179C3.39576 46.4242 3.62229 44.9555 3.9598 43.4947C4.14515 43.4732 4.22981 43.5865 4.32591 43.6613C5.30412 44.4319 6.17707 45.3023 6.84522 46.3562C7.25252 46.9999 7.5477 47.6878 7.67126 48.4471C7.78682 49.1509 7.70673 49.8286 7.42414 50.4689C7.29028 50.7726 7.3349 50.9766 7.50994 51.2282C9.03503 53.4234 10.9777 55.1845 13.2167 56.6373C16.1262 58.5265 19.3125 59.7833 22.6624 60.6582C25.2114 61.3246 27.804 61.7484 30.432 61.9672C31.6207 62.0658 32.8083 62.1496 34.0016 62.1587C34.5095 62.1621 34.9958 62.2505 35.347 62.7378L35.3447 62.7423Z" fill="#70B156"/>
<path d="M24.4517 34.4814C26.9447 35.4549 29.2695 36.6709 31.1321 38.6145C32.1309 39.6571 32.8402 40.8607 33.045 42.3135C33.0519 42.3623 33.0633 42.4099 33.069 42.4586C33.1297 42.9663 33.0851 43.0162 32.5611 43.0366C31.1607 43.0898 29.9331 42.6207 28.8256 41.8081C27.7444 41.0148 26.9264 39.9914 26.2456 38.8559C25.4654 37.5549 24.8864 36.1644 24.4322 34.7217C24.4139 34.6639 24.3716 34.6038 24.4528 34.4814H24.4517Z" fill="#70B156"/>
<path d="M46.4137 34.4761C45.5808 36.9954 44.5957 39.322 42.7068 41.1534C41.7023 42.128 40.5273 42.7898 39.1155 42.9972C38.786 43.0459 38.4565 43.0471 38.127 43.0323C37.6751 43.0131 37.6293 42.9553 37.6888 42.4861C37.7849 41.7155 38.0092 40.9834 38.3867 40.3C39.008 39.1735 39.8752 38.2601 40.8797 37.4668C42.47 36.2111 44.2422 35.2728 46.138 34.5577C46.1975 34.535 46.2604 34.5214 46.4149 34.4761H46.4137Z" fill="#70B156"/>
<path d="M25.6438 71.4629C25.5591 71.404 25.5683 71.3167 25.5683 71.2374C25.5717 69.6372 25.7307 68.0608 26.3303 66.557C26.6563 65.7387 27.106 64.9998 27.7741 64.406C28.329 63.9119 28.9777 63.5991 29.7019 63.4416C30.1264 63.3498 30.1687 63.3668 30.3575 63.7589C31.124 65.35 30.9844 66.8732 29.9776 68.3192C29.5886 68.8768 29.1058 69.3505 28.575 69.7732C27.7444 70.4339 26.8314 70.9632 25.8692 71.4108C25.7982 71.4437 25.7296 71.5026 25.6438 71.4641V71.4629Z" fill="#70B156"/>
<path d="M45.1909 70.6718C45.1875 71.6578 45.2515 71.5943 44.4678 71.2022C43.3832 70.6605 42.365 70.0225 41.5023 69.1623C40.8021 68.4642 40.2553 67.6732 40.031 66.6974C39.7953 65.6661 39.9246 64.6779 40.412 63.7373C40.6008 63.3724 40.6294 63.3531 41.0298 63.4358C42.1327 63.6659 43.0022 64.2529 43.6624 65.1528C44.3076 66.0322 44.6577 67.0351 44.8923 68.0834C45.0891 68.9663 45.152 69.8672 45.1909 70.6718Z" fill="#70B156"/>
<path d="M34.6777 33.5831C35.1479 33.616 35.6113 33.5163 36.0803 33.5117C36.0803 39.3787 36.0815 45.2468 36.0826 51.1138C36.0826 51.1954 36.0872 51.2781 36.0792 51.3597C36.0426 51.7745 35.7691 52.0261 35.3653 52.0193C34.9843 52.0125 34.7189 51.7677 34.6788 51.3824C34.6697 51.3008 34.6742 51.2192 34.6742 51.1365C34.6742 45.2854 34.6765 39.4342 34.6777 33.5831Z" fill="#70B156"/>
<path d="M57.7198 66.4334C55.9384 66.5365 54.2429 66.5173 52.6526 65.7738C51.0931 65.0451 50.2591 63.8121 50.195 62.0941C50.1779 61.6306 50.1905 61.6238 50.6572 61.4968C51.6343 61.2316 52.5862 61.303 53.5106 61.7224C54.3058 62.0827 54.9728 62.6142 55.5666 63.2387C56.3892 64.1022 57.0505 65.0803 57.5974 66.1342C57.634 66.2056 57.658 66.2827 57.7186 66.4345L57.7198 66.4334Z" fill="#70B156"/>
<path d="M18.952 69.0867C19.015 68.5008 19.198 67.9557 19.3822 67.414C19.8032 66.1787 20.3593 65.0137 21.2608 64.0402C22.0262 63.2129 22.9495 62.6826 24.1005 62.5976C24.232 62.5874 24.3648 62.5794 24.4963 62.5828C24.97 62.593 24.9894 62.5998 25.0913 63.0565C25.4471 64.6511 24.9974 66.0019 23.803 67.1114C23.1795 67.6905 22.4415 68.0928 21.6578 68.4158C20.9073 68.7241 20.127 68.9371 19.3364 69.1128C19.2278 69.1366 19.1133 69.1763 18.952 69.0879V69.0867Z" fill="#70B156"/>
<path d="M2.90833 58.7048C4.22633 57.6633 5.56721 56.8542 7.12319 56.4292C7.71812 56.2671 8.3222 56.2002 8.93773 56.2308C9.91937 56.2796 10.7557 56.6547 11.4856 57.2995C11.7007 57.4899 11.7145 57.6486 11.5955 57.8911C10.8621 59.3825 9.65851 60.1656 7.99499 60.2653C7.39548 60.3005 6.80627 60.2132 6.22736 60.0749C5.07983 59.8018 4.01238 59.336 2.90833 58.7037V58.7048Z" fill="#70B156"/>
<path d="M67.8187 58.7227C66.7398 59.337 65.6632 59.8129 64.4985 60.0815C63.6862 60.2685 62.8693 60.349 62.0433 60.1756C60.6624 59.8855 59.7151 59.0752 59.1316 57.8161C59.0412 57.6223 59.0675 57.4931 59.2265 57.3458C59.9279 56.6964 60.7459 56.31 61.7058 56.2386C62.3533 56.1899 62.9895 56.2578 63.6199 56.4233C64.9607 56.7769 66.7856 57.7572 67.8187 58.7227Z" fill="#70B156"/>
<path d="M14.3242 66.4528C13.9935 66.4528 13.6617 66.4665 13.3322 66.4483C13.0794 66.4347 13.0462 66.369 13.1629 66.1355C13.2945 65.8715 13.4421 65.6142 13.5954 65.3615C14.2475 64.2872 15.0003 63.2944 15.9945 62.5022C16.9522 61.7384 18.0139 61.2602 19.2792 61.3508C19.6122 61.3746 19.928 61.463 20.2494 61.5389C20.516 61.6024 20.5767 61.7588 20.5709 62.0025C20.5378 63.4247 19.976 64.5727 18.785 65.391C17.9498 65.9655 16.9968 66.2273 16.006 66.369C15.4488 66.4495 14.8882 66.4925 14.3242 66.4528Z" fill="#70B156"/>
<path d="M51.7546 69.1746C50.0041 68.8177 48.3463 68.3326 47.0031 67.1495C45.7938 66.0853 45.3396 64.7435 45.6405 63.1637C45.7458 62.613 45.7961 62.5778 46.3544 62.5824C47.6027 62.5926 48.6198 63.1093 49.4607 63.9967C50.2307 64.8093 50.7432 65.7782 51.1551 66.805C51.3931 67.3988 51.5761 68.0108 51.7294 68.6307C51.7683 68.7871 51.8164 68.9423 51.7557 69.1758L51.7546 69.1746Z" fill="#70B156"/>
<path d="M62.8591 63.4031C62.3477 63.5788 61.8855 63.6219 61.4302 63.6695C60.2918 63.7884 59.1523 63.8247 58.0322 63.5199C56.3995 63.0756 55.3012 62.0829 54.9225 60.4181C54.72 59.5296 54.7669 59.6316 55.498 59.3517C56.5769 58.9391 57.6409 59.0661 58.6786 59.5194C59.5058 59.8809 60.2186 60.4101 60.8718 61.021C61.6189 61.7202 62.2734 62.4954 62.8603 63.4031H62.8591Z" fill="#70B156"/>
<path d="M7.89771 63.4049C8.51552 62.4541 9.20656 61.6472 9.99827 60.9219C10.6218 60.3507 11.3014 59.8611 12.0805 59.5189C13.2395 59.01 14.4099 58.9409 15.5838 59.477C15.9419 59.6401 15.9602 59.6458 15.9064 60.0311C15.7096 61.4647 14.9671 62.5255 13.656 63.1771C13.0278 63.4888 12.3528 63.6531 11.6572 63.7109C10.4971 63.8072 9.34499 63.7222 8.20318 63.5012C8.12424 63.4865 8.04873 63.4525 7.89771 63.4038V63.4049Z" fill="#70B156"/>
<path d="M35.3458 53.4049C36.3434 54.7626 37.1134 56.1803 37.2164 57.8599C37.2999 59.2368 36.7438 60.3463 35.6432 61.186C35.3103 61.4399 35.2943 61.4433 34.9671 61.1736C33.7623 60.1808 33.1823 58.9285 33.371 57.3612C33.5266 56.0784 34.3847 54.3297 35.3458 53.4038V53.4049Z" fill="#70B156"/>
<path d="M56.3102 47.7712C57.4554 49.011 58.4897 50.2825 58.8673 51.9439C59.1956 53.3854 58.8295 54.6388 57.7392 55.6656C57.4028 55.9829 57.3662 55.9806 56.9875 55.7154C56.0219 55.0411 55.5219 54.0949 55.3492 52.957C55.1261 51.4883 55.443 50.0876 55.9029 48.7061C56.0047 48.4001 56.0974 48.0851 56.3091 47.77L56.3102 47.7712Z" fill="#70B156"/>
<path d="M18.1339 50.0127C18.3925 50.3731 18.5046 50.7516 18.6373 51.1188C19.0652 52.3008 19.3409 53.5111 19.2757 54.777C19.2094 56.0667 18.7506 57.1705 17.6774 57.9683C17.3033 58.2471 17.2827 58.2539 16.9269 57.9355C15.7279 56.8656 15.3801 55.5386 15.7439 54.0064C15.8961 53.3638 16.1649 52.7654 16.499 52.1954C16.9578 51.4146 17.5024 50.6983 18.1339 50.0127Z" fill="#70B156"/>
<path d="M14.4752 47.7661C14.886 48.6535 15.1468 49.542 15.3219 50.4588C15.5141 51.4663 15.5678 52.4715 15.3058 53.4756C15.061 54.4139 14.5565 55.1778 13.7476 55.7342C13.3941 55.9779 13.3597 55.9813 13.036 55.6798C11.8141 54.5409 11.5292 53.1549 11.9765 51.5943C12.2374 50.6854 12.719 49.8853 13.2877 49.134C13.6435 48.6637 14.0142 48.2058 14.4752 47.7672V47.7661Z" fill="#70B156"/>
<path d="M52.5955 49.9702C53.7991 51.3415 54.8265 52.7037 55.1034 54.4625C55.3207 55.8463 54.8791 57.0192 53.8163 57.9496C53.4742 58.25 53.4593 58.242 53.1035 57.9836C52.1161 57.2685 51.6207 56.2724 51.5086 55.0972C51.3381 53.3168 51.8347 51.6633 52.5966 49.9702H52.5955Z" fill="#70B156"/>
<path d="M26.4538 52.6436C27.2135 54.4659 27.7581 56.2202 27.4309 58.1264C27.2536 59.1565 26.749 59.9974 25.9012 60.6286C25.5248 60.9086 25.4882 60.912 25.1484 60.6082C24.0924 59.6665 23.6897 58.4901 23.8968 57.1075C24.0272 56.2338 24.3967 55.4473 24.8555 54.7005C25.2949 53.9854 25.8166 53.3349 26.4538 52.6447V52.6436Z" fill="#70B156"/>
<path d="M22.1647 51.604C22.2688 51.6346 22.2951 51.6969 22.3192 51.7536C22.953 53.2495 23.3717 54.7931 23.2447 56.4329C23.1486 57.6806 22.6692 58.7459 21.6087 59.4973C21.2231 59.7704 21.2002 59.7806 20.8536 59.4588C19.6957 58.3855 19.3433 57.0743 19.7232 55.5637C20.0378 54.3103 20.7414 53.2631 21.5515 52.2783C21.7471 52.0403 21.9336 51.7899 22.1636 51.6051L22.1647 51.604Z" fill="#70B156"/>
<path d="M48.5498 51.6115C48.5669 51.6149 48.5887 51.6126 48.599 51.6228C49.8346 52.8921 50.8551 54.294 51.1377 56.0823C51.346 57.4037 50.9101 58.5392 49.9147 59.4504C49.5554 59.779 49.5303 59.7722 49.1184 59.473C48.1162 58.7455 47.6299 57.7278 47.5235 56.5378C47.3702 54.8311 47.7935 53.2241 48.4834 51.6738C48.4949 51.6477 48.528 51.6308 48.5498 51.6104V51.6115Z" fill="#70B156"/>
<path d="M44.3076 52.6339C45.5123 53.9995 46.55 55.3346 46.8497 57.0719C47.0957 58.4919 46.6598 59.6943 45.5615 60.6474C45.264 60.9058 45.256 60.9001 44.9277 60.6723C43.9106 59.9663 43.398 58.9633 43.2687 57.77C43.0765 55.9907 43.5799 54.3418 44.3064 52.6328L44.3076 52.6339Z" fill="#70B156"/>
<path d="M0 53.0346C0.0503404 52.9813 0.0766547 52.9326 0.116698 52.9145C1.65551 52.2164 3.24695 51.7551 4.9631 51.9024C6.16326 52.0056 7.14605 52.5156 7.86225 53.4924C8.13455 53.863 8.13455 53.8936 7.8245 54.2483C6.73074 55.5017 5.36011 55.8225 3.78468 55.3964C2.71266 55.1062 1.79624 54.5192 0.932441 53.846C0.608661 53.5944 0.288313 53.3372 0.0011441 53.0335L0 53.0346Z" fill="#70B156"/>
<path d="M70.7534 53.057C69.5189 54.1631 68.2318 55.1627 66.5625 55.4902C65.0912 55.7792 63.851 55.3451 62.8854 54.1903C62.6348 53.89 62.6348 53.8685 62.8545 53.5523C63.5249 52.589 64.4631 52.0462 65.6221 51.9204C67.4206 51.7243 69.0967 52.181 70.6996 52.9584C70.711 52.9641 70.7156 52.9856 70.7522 53.057H70.7534Z" fill="#70B156"/>
<path d="M40.0572 53.2456C41.1087 54.6067 42.0068 55.9519 42.1784 57.6348C42.318 58.9993 41.8089 60.0951 40.7174 60.9372C40.5 61.1049 40.3227 61.1026 40.0973 60.9474C39.1694 60.3116 38.6408 59.448 38.5505 58.3318C38.4933 57.6246 38.563 56.9276 38.7484 56.2409C39.0264 55.2073 39.4554 54.2418 40.0584 53.2467L40.0572 53.2456Z" fill="#70B156"/>
<path d="M30.6927 53.2672C31.0771 53.8203 31.3277 54.3688 31.5611 54.9241C32.0233 56.0234 32.3151 57.1578 32.2064 58.3636C32.1057 59.481 31.568 60.3366 30.6355 60.9645C30.4239 61.1073 30.2568 61.0971 30.0566 60.9475C28.9709 60.1293 28.4732 59.0458 28.5693 57.7018C28.6242 56.9425 28.869 56.2308 29.2043 55.5474C29.5967 54.7484 30.0932 54.0186 30.6927 53.2661V53.2672Z" fill="#70B156"/>
<path d="M10.441 45.5693C10.8666 46.2516 11.1458 46.9281 11.37 47.6251C11.7007 48.6473 11.9078 49.6865 11.727 50.7688C11.5806 51.6437 11.1836 52.3781 10.5005 52.9549C10.1951 53.2133 10.1893 53.2178 9.87357 52.9855C8.64137 52.0755 8.24552 50.8414 8.49607 49.3817C8.70888 48.1407 9.33813 47.0811 10.0578 46.0691C10.1619 45.9229 10.2763 45.7824 10.4399 45.5693H10.441Z" fill="#70B156"/>
<path d="M60.3089 45.6437C60.3387 45.655 60.3799 45.6573 60.3959 45.6788C61.2597 46.7917 62.0091 47.9692 62.2585 49.379C62.5159 50.8353 62.1178 52.0728 60.8867 52.9828C60.5698 53.2174 60.5629 53.2129 60.2574 52.9568C59.2838 52.1397 58.9257 51.0551 58.968 49.8414C59.0195 48.3556 59.5206 46.9889 60.2346 45.6936C60.2472 45.6698 60.2849 45.6596 60.3101 45.6426L60.3089 45.6437Z" fill="#70B156"/>
<path d="M12.2266 11.2695C12.2395 11.2753 12.2629 11.2777 12.2653 11.2869C12.2747 11.3183 12.2524 11.3334 12.2126 11.3241C12.2032 11.3218 12.1973 11.3032 12.1903 11.2927C12.2032 11.2858 12.2149 11.2777 12.2278 11.2707L12.2266 11.2695Z" fill="#CAC8BE"/>
<path d="M58.308 27.5008C58.6123 26.5703 58.9178 25.6388 59.221 24.7084C59.8891 22.6515 60.5504 20.5923 61.23 18.5377C61.3661 18.1274 61.3524 17.7818 61.1419 17.3817C60.301 15.7827 59.5219 14.1507 58.6798 12.5517C57.6684 10.633 56.7119 8.68719 55.728 6.75495C55.4443 6.19738 55.2669 5.61714 55.2303 4.97457C55.1743 3.97501 56.2497 3.19758 56.9819 3.17039C57.9075 3.13639 58.5734 3.55343 59.0482 4.29347C59.7575 5.39955 60.4406 6.52149 61.1339 7.63664C62.3123 9.53375 63.4896 11.432 64.6692 13.328C65.3373 14.4012 66.0123 15.471 66.6736 16.5476C66.8818 16.8876 66.986 17.2593 66.9928 17.6684C67.0077 18.5388 66.9127 19.399 66.8075 20.2602C66.7537 20.6977 66.7457 21.1397 66.7022 21.5805C66.5684 22.9473 66.4688 24.3163 66.3796 25.6864C66.2915 27.0543 65.7069 28.2249 65.0273 29.3854C64.1143 30.9437 63.2711 32.5416 62.5777 34.2132C62.1498 35.2445 61.6453 36.2429 61.1167 37.2266C60.944 37.5484 60.8868 37.868 60.9691 38.2193C60.9955 38.3304 61.0103 38.446 61.008 38.5593C60.9794 40.0518 61.1591 41.5387 61.1293 43.0301C61.1259 43.2092 61.1385 43.3871 61.1751 43.5673C61.2414 43.8948 61.2002 43.9424 60.881 44.0909C59.745 44.6224 58.6089 45.1561 57.4728 45.691C56.0827 46.3449 54.6949 47.0023 53.3048 47.655C52.9273 47.8318 52.9261 47.8284 52.8632 47.4023C52.5955 45.5766 52.3541 43.7463 52.0509 41.9263C51.8507 40.7182 51.6607 39.509 51.4113 38.3077C51.2271 37.4272 51.2443 36.5251 51.3495 35.6207C51.4594 34.6801 51.4994 33.7293 51.758 32.8125C52.0646 31.7256 52.3941 30.6445 52.719 29.5622C53.0245 28.5423 53.3391 27.5257 53.6423 26.5058C53.7258 26.2236 53.7625 25.9334 53.7682 25.6343C53.7899 24.4885 53.8425 23.3416 53.8929 22.197C53.9295 21.3629 53.9055 20.5243 53.9821 19.6947C54.0599 18.8595 54.0245 18.0243 54.0794 17.1913C54.1171 16.6236 54.1526 16.0467 54.3643 15.5039C54.5954 14.9089 54.9638 14.4522 55.6216 14.2867C55.847 14.2301 56.101 14.0623 56.2863 14.1201C56.7852 14.2765 57.268 14.5009 57.6101 14.935C58.1478 15.6161 58.4041 16.3788 58.4475 17.248C58.499 18.2747 58.5814 19.3015 58.7073 20.3237C58.7793 20.9073 58.7679 21.5012 58.84 22.0848C59.0024 23.3915 58.6581 24.646 58.483 25.9187C58.4109 26.4412 58.3137 26.9602 58.2279 27.4815C58.2553 27.4872 58.2816 27.4928 58.3091 27.4985L58.308 27.5008Z" fill="#C7C4BA"/>
<path d="M14.6193 33.0925C14.6021 32.7888 14.4534 32.5316 14.3299 32.2641C13.926 31.3847 13.5187 30.5075 13.1709 29.6043C12.9432 29.015 12.8951 28.3951 12.7762 27.7888C12.4684 26.2181 12.1446 24.6473 11.9215 23.0641C11.7762 22.0283 12.0908 21.0877 12.9913 20.4247C13.0702 20.3658 13.172 20.3318 13.2006 20.2287C13.2716 19.9692 13.2956 20.1426 13.3574 20.2355C13.4214 20.3307 13.5358 20.2955 13.6308 20.2774C14.2589 20.1573 14.7738 20.376 15.1753 20.835C15.4556 21.1546 15.6982 21.5093 15.8298 21.9263C16.3469 23.5492 16.8709 25.1709 17.388 26.7938C17.8251 28.1673 18.2129 29.5578 18.7037 30.9121C19.0035 31.7405 19.4486 32.5191 19.841 33.3135C20.4016 34.4479 20.9931 35.5665 21.5365 36.7077C22.1864 38.071 22.7676 39.4627 23.0914 40.9439C23.2321 41.5853 23.2584 42.2222 23.1875 42.8875C22.9575 45.0679 22.5056 47.2098 22.1486 49.3687C22.12 49.5444 22.0628 49.7166 22.0228 49.8787C21.9209 49.9274 21.8466 49.8855 21.7756 49.8469C19.2335 48.4768 16.6913 47.1078 14.1514 45.7331C13.823 45.5552 13.8276 45.5416 13.9191 45.1665C13.9935 44.865 14.053 44.5568 14.1571 44.2655C14.2463 44.014 14.1777 43.8224 14.0324 43.6264C12.7533 41.9163 11.5771 40.1313 10.2511 38.4552C9.70082 37.7594 9.14021 37.0681 8.48579 36.464C7.64144 35.6844 7.10143 34.7403 6.72045 33.6648C5.94818 31.4878 5.12557 29.3278 4.30983 27.1655C3.97003 26.2634 4.03067 25.3874 4.30182 24.4762C5.35439 20.946 6.37722 17.4079 7.40805 13.8721C7.62772 13.1185 7.8245 12.3569 8.0579 11.6067C8.31418 10.7851 8.82444 10.2116 9.71455 10.019C10.7614 9.79231 11.846 10.5958 11.9261 11.6611C11.9799 12.3739 11.8357 13.0618 11.6984 13.752C11.2442 16.0276 10.79 18.3021 10.3335 20.5766C10.0544 21.9705 9.77633 23.3645 9.48344 24.7561C9.42166 25.0497 9.45599 25.291 9.62188 25.5449C11.0165 27.6743 12.3998 29.8117 13.7921 31.9434C14.0507 32.34 14.2532 32.7752 14.601 33.1107C14.6205 33.1254 14.6399 33.1401 14.6594 33.1549C14.6719 33.1231 14.6594 33.1027 14.6182 33.0925H14.6193Z" fill="#C7C4BA"/>
<path d="M59.7208 17.2563C59.3604 16.8846 59.1842 16.4007 58.9371 15.9621C57.7038 13.7771 56.4888 11.5808 55.268 9.38908C54.8767 8.68645 54.4797 7.98835 54.1022 7.27892C53.656 6.44029 53.9145 5.55633 54.7291 5.07469C54.7715 5.04975 54.8229 5.04749 54.8939 5.10642C54.395 5.60053 54.506 6.15357 54.7657 6.71341C55.0346 7.29365 55.3057 7.87275 55.5838 8.44846C56.4533 10.2504 57.3297 12.0489 58.198 13.8519C58.6751 14.8413 59.1408 15.8363 59.611 16.8291C59.6739 16.9617 59.7506 17.092 59.7288 17.2484L59.7197 17.2563H59.7208Z" fill="#CAC8BE"/>
<path d="M10.7787 24.3558C10.6723 23.907 10.8142 23.5795 10.8668 23.2542C11.1013 21.8206 11.3725 20.3927 11.6299 18.9625C11.9857 16.9861 12.3575 15.0119 12.6848 13.0298C12.774 12.4915 12.8781 11.9101 12.353 11.3979C12.7923 11.3729 13.0085 11.6019 13.195 11.8194C13.5691 12.2546 13.5886 12.7748 13.4593 13.3074C13.1573 14.5472 12.8472 15.7848 12.5498 17.0257C12.0063 19.3002 11.4697 21.5759 10.9286 23.8503C10.8954 23.9897 10.8473 24.1257 10.7775 24.3558H10.7787Z" fill="#CAC8BE"/>
<path d="M53.3344 6.38281C52.9546 6.92792 53.0919 7.44243 53.3459 7.9694C54.2074 9.75545 55.0609 11.5472 55.9144 13.3378C55.9613 13.4352 56.0379 13.5293 56.0174 13.6437C55.8858 13.7027 55.8606 13.6052 55.8217 13.5429C54.7886 11.8872 53.7555 10.2314 52.7258 8.57458C52.2144 7.75181 52.4638 6.80439 53.3344 6.38281Z" fill="#C7C4BA"/>
<path d="M13.3449 19.8563C13.251 19.5152 13.3895 19.2183 13.4421 18.9202C13.7476 17.1659 14.0828 15.4173 14.3894 13.663C14.481 13.1371 14.4409 12.6169 14.0233 12.1738C14.8162 12.2634 15.3585 13.0952 15.156 13.8907C14.9866 14.5571 14.7819 15.2144 14.5896 15.8751C14.2476 17.0549 13.9055 18.2346 13.5577 19.4121C13.5142 19.5605 13.5027 19.7339 13.3437 19.8563H13.3449Z" fill="#C7C4BA"/>
<path d="M56.0804 13.8521L56.1081 13.8413L56.1045 13.87L56.0804 13.8521Z" fill="#C7C4BA"/>
<path d="M113.278 39.6356H100.783L99.3177 43.0633C99.0462 43.7084 98.6115 44.2121 98.0153 44.5747C97.4173 44.9372 96.7799 45.1193 96.1029 45.1193C95.7782 45.1193 95.4105 45.0597 95.0033 44.9372C94.5961 44.8163 94.2163 44.6138 93.8641 44.333C93.5119 44.0505 93.2129 43.6879 92.9689 43.2437C92.725 42.8012 92.603 42.2566 92.603 41.6116C92.603 41.1555 92.7112 40.684 92.9277 40.2007L103.754 16.5352C104.433 15.0834 105.558 14.3584 107.132 14.3584C108.706 14.3584 109.886 15.0834 110.51 16.5352L121.133 40.2007C121.323 40.6585 121.419 41.1282 121.419 41.6116C121.419 42.6055 121.079 43.4395 120.402 44.1117C119.723 44.784 118.896 45.1193 117.919 45.1193C117.24 45.1193 116.603 44.9372 116.006 44.5747C115.408 44.2121 114.976 43.7084 114.704 43.0633L113.28 39.6356H113.278ZM103.388 33.5886H110.795L107.132 24.759L103.388 33.5886Z" fill="#1D1D1B"/>
<path d="M140.12 23.3905C141.381 23.9556 142.506 24.7351 143.498 25.729C144.487 26.7229 145.295 27.9126 145.918 29.2963C146.542 30.6816 146.855 32.193 146.855 33.8319C146.855 35.4709 146.542 36.9771 145.918 38.3472C145.295 39.7172 144.487 40.9069 143.498 41.9144C142.506 42.922 141.381 43.7083 140.12 44.2733C138.858 44.8384 137.589 45.1192 136.314 45.1192C135.336 45.1192 134.503 45.012 133.81 44.7958C133.118 44.5814 132.536 44.3465 132.06 44.0912C131.585 43.8359 131.211 43.6011 130.941 43.3849C130.67 43.1705 130.467 43.0616 130.331 43.0616C130.168 43.0616 130.087 43.3441 130.087 43.9074V49.6719C130.087 50.1008 130.006 50.5041 129.843 50.882C129.68 51.2581 129.457 51.5883 129.171 51.8691C128.886 52.1516 128.548 52.3729 128.154 52.5346C127.761 52.6962 127.347 52.7762 126.912 52.7762C126.042 52.7762 125.304 52.4733 124.694 51.8691C124.084 51.2649 123.778 50.5314 123.778 49.6719V25.6439C123.778 24.7844 124.084 24.0509 124.694 23.4467C125.304 22.8425 126.042 22.5396 126.912 22.5396C127.644 22.5396 128.295 22.7812 128.865 23.2646C129.436 23.7479 129.788 24.2721 129.924 24.8372C130.005 24.7844 130.188 24.6363 130.474 24.3947C130.759 24.153 131.166 23.8909 131.695 23.6084C132.225 23.3258 132.876 23.0774 133.649 22.8629C134.422 22.6485 135.31 22.5396 136.316 22.5396C137.59 22.5396 138.858 22.8221 140.121 23.3871L140.12 23.3905ZM140.14 31.7964C139.869 31.165 139.496 30.6136 139.022 30.1438C138.547 29.6741 137.991 29.3048 137.353 29.0359C136.716 28.767 136.03 28.6325 135.298 28.6325C134.566 28.6325 133.888 28.767 133.264 29.0359C132.64 29.3048 132.09 29.6741 131.616 30.1438C131.142 30.6136 130.767 31.165 130.498 31.7964C130.226 32.4278 130.091 33.1069 130.091 33.8319C130.091 34.557 130.226 35.236 130.498 35.8674C130.769 36.4989 131.142 37.0503 131.616 37.52C132.09 37.9898 132.64 38.3608 133.264 38.628C133.888 38.8969 134.566 39.0314 135.298 39.0314C136.03 39.0314 136.716 38.8969 137.353 38.628C137.991 38.3591 138.547 37.9898 139.022 37.52C139.496 37.0503 139.869 36.4989 140.14 35.8674C140.412 35.236 140.547 34.557 140.547 33.8319C140.547 33.1069 140.412 32.4278 140.14 31.7964Z" fill="#1D1D1B"/>
<path d="M171.561 41.9743C171.561 42.8355 171.255 43.5741 170.645 44.1919C170.035 44.8097 169.294 45.1195 168.427 45.1195C167.695 45.1195 167.044 44.8778 166.473 44.3944C165.903 43.9111 165.55 43.3869 165.415 42.8218C165.334 42.8763 165.143 43.0227 164.844 43.2661C164.545 43.5077 164.131 43.7698 163.604 44.0523C163.075 44.3349 162.43 44.5834 161.671 44.7978C160.911 45.0139 160.028 45.1212 159.025 45.1212C157.75 45.1212 156.482 44.8386 155.219 44.2753C153.958 43.7103 152.831 42.924 151.841 41.9164C150.85 40.9089 150.044 39.7192 149.42 38.3491C148.796 36.9791 148.484 35.4729 148.484 33.8339C148.484 32.1949 148.795 30.6836 149.42 29.2982C150.044 27.9145 150.851 26.7249 151.841 25.731C152.831 24.737 153.958 23.9575 155.219 23.3925C156.48 22.8274 157.748 22.5449 159.025 22.5449C160.028 22.5449 160.91 22.6521 161.671 22.8683C162.43 23.0844 163.075 23.3312 163.604 23.6137C164.133 23.8963 164.545 24.1584 164.844 24.4C165.143 24.6417 165.332 24.7898 165.415 24.8425C165.55 24.2775 165.903 23.7533 166.473 23.2699C167.044 22.7866 167.695 22.5449 168.427 22.5449C169.294 22.5449 170.035 22.8479 170.645 23.4521C171.255 24.0562 171.561 24.7898 171.561 25.6493V41.9777V41.9743ZM157.987 29.0344C157.349 29.3033 156.793 29.6727 156.319 30.1424C155.844 30.6121 155.47 31.1636 155.198 31.795C154.927 32.4264 154.791 33.1055 154.791 33.8305C154.791 34.5555 154.927 35.2346 155.198 35.866C155.47 36.4974 155.843 37.0489 156.319 37.5186C156.793 37.9883 157.349 38.3594 157.987 38.6266C158.624 38.8955 159.31 39.0299 160.042 39.0299C160.774 39.0299 161.453 38.8955 162.076 38.6266C162.7 38.3577 163.25 37.9883 163.724 37.5186C164.198 37.0489 164.571 36.4974 164.843 35.866C165.114 35.2346 165.25 34.5555 165.25 33.8305C165.25 33.1055 165.114 32.4264 164.843 31.795C164.571 31.1636 164.198 30.6121 163.724 30.1424C163.25 29.6727 162.7 29.3033 162.076 29.0344C161.451 28.7655 160.774 28.6311 160.042 28.6311C159.31 28.6311 158.624 28.7655 157.987 29.0344Z" fill="#1D1D1B"/>
<path d="M182.385 38.0238C182.385 38.1855 182.493 38.3404 182.712 38.4867C182.928 38.6348 183.2 38.7693 183.526 38.8901C183.851 39.0109 184.205 39.1114 184.585 39.193C184.964 39.273 185.303 39.3139 185.602 39.3139C186.469 39.3139 187.148 39.1998 187.636 38.9718C188.124 38.7437 188.538 38.4953 188.877 38.2263C189.215 37.9574 189.541 37.709 189.854 37.4809C190.165 37.2528 190.593 37.1388 191.136 37.1388C191.543 37.1388 191.944 37.2341 192.337 37.4213C192.73 37.6102 193.076 37.8519 193.375 38.1464C193.674 38.4425 193.911 38.7846 194.088 39.1743C194.263 39.5641 194.352 39.9742 194.352 40.4048C194.352 41.1843 194.04 41.8838 193.416 42.5016C192.547 43.3083 191.435 43.9874 190.079 44.5371C188.722 45.0886 187.231 45.3643 185.602 45.3643C183.973 45.3643 182.495 45.0818 181.085 44.5184C179.674 43.9534 178.439 43.162 177.38 42.1391C176.322 41.1179 175.487 39.9011 174.877 38.4901C174.267 37.0792 173.961 35.5271 173.961 33.8336C173.961 32.1402 174.267 30.588 174.877 29.1771C175.487 27.7662 176.322 26.551 177.38 25.5282C178.439 24.507 179.672 23.7139 181.085 23.1506C182.495 22.5855 184 22.3047 185.602 22.3047C186.823 22.3047 188.023 22.4936 189.203 22.8697C190.383 23.2459 191.428 23.7837 192.337 24.4815C193.246 25.181 193.978 26.0132 194.535 26.9816C195.091 27.95 195.37 29.0376 195.37 30.2476C195.37 30.9199 195.227 31.5037 194.942 32.0006C194.657 32.4976 194.203 32.8669 193.578 33.1086L182.954 37.503C182.574 37.6647 182.384 37.84 182.384 38.0272L182.385 38.0238ZM180.574 32.8023C180.669 32.8703 180.784 32.9027 180.92 32.9027C181.028 32.9027 181.164 32.8754 181.327 32.8227L187.92 30.0809C188.299 29.9192 188.49 29.732 188.49 29.5158C188.49 29.2197 188.205 28.9508 187.636 28.7091C187.066 28.4674 186.387 28.3466 185.602 28.3466C184.816 28.3466 184.15 28.4878 183.526 28.7704C182.901 29.0529 182.359 29.395 181.897 29.7983C181.435 30.2017 181.076 30.6442 180.818 31.1292C180.561 31.6126 180.432 32.0568 180.432 32.4602C180.432 32.6219 180.478 32.7359 180.574 32.8023Z" fill="#1D1D1B"/>
<path d="M96.1562 56.2256C96.6167 56.2256 97.017 56.2766 97.359 56.3771C97.7009 56.4792 97.9741 56.5864 98.1768 56.7021C98.3796 56.8162 98.5033 56.891 98.5445 56.9268L97.8383 58.0926C97.7765 58.0433 97.6717 57.9735 97.5222 57.8833C97.3727 57.7931 97.194 57.7131 96.9861 57.6416C96.7782 57.5701 96.5514 57.5361 96.3074 57.5361C95.9552 57.5361 95.6751 57.6025 95.4638 57.7335C95.2524 57.8663 95.1476 58.0569 95.1476 58.3054C95.1476 58.4739 95.2043 58.6236 95.316 58.7564C95.4277 58.8891 95.5927 59.0117 95.8109 59.1274C96.0291 59.2414 96.2971 59.3623 96.6133 59.4899C96.8916 59.5971 97.1579 59.7214 97.4105 59.8626C97.6631 60.0039 97.8899 60.1707 98.0892 60.3613C98.2885 60.5536 98.4466 60.7749 98.5651 61.0268C98.6837 61.2787 98.7421 61.568 98.7421 61.8931C98.7421 62.2573 98.6682 62.5738 98.5187 62.8461C98.3692 63.1184 98.1648 63.3465 97.9036 63.5303C97.6425 63.7141 97.3435 63.852 97.0084 63.9439C96.6717 64.0358 96.3194 64.0817 95.9483 64.0817C95.4466 64.0817 94.9947 64.0239 94.5944 63.9064C94.194 63.789 93.871 63.6648 93.6236 63.5303C93.3762 63.3959 93.2319 63.3108 93.1889 63.2716L93.9312 62.0598C93.9776 62.0939 94.0652 62.15 94.1958 62.2266C94.3246 62.3032 94.4844 62.3815 94.6717 62.4615C94.859 62.5415 95.0635 62.6113 95.2868 62.6674C95.5085 62.7253 95.7353 62.7542 95.9672 62.7542C96.3847 62.7542 96.6992 62.6674 96.9122 62.4955C97.1253 62.3236 97.2318 62.099 97.2318 61.8233C97.2318 61.6156 97.1648 61.4352 97.0291 61.2786C96.8933 61.1221 96.7026 60.9774 96.4586 60.8447C96.2129 60.7119 95.9208 60.5775 95.5806 60.4396C95.2404 60.2983 94.9243 60.1332 94.6322 59.9426C94.3401 59.752 94.1064 59.5188 93.9277 59.2414C93.749 58.964 93.6614 58.6219 93.6614 58.2169C93.6614 57.8118 93.7765 57.4646 94.0068 57.1668C94.237 56.8672 94.5428 56.6358 94.9226 56.4724C95.3023 56.309 95.7164 56.2256 96.1597 56.2256H96.1562Z" fill="#1D1D1B"/>
<path d="M103.256 63.9427V63.1224C103.222 63.2058 103.132 63.3249 102.99 63.4781C102.847 63.6313 102.655 63.7709 102.412 63.8951C102.17 64.0193 101.888 64.0823 101.563 64.0823C101.106 64.0823 100.703 63.9734 100.352 63.7572C100.002 63.5411 99.725 63.245 99.5257 62.8671C99.3264 62.4893 99.2267 62.0638 99.2267 61.589C99.2267 61.1141 99.3264 60.6886 99.5257 60.3108C99.725 59.933 99.9999 59.6368 100.352 59.4173C100.704 59.1994 101.108 59.0905 101.563 59.0905C101.88 59.0905 102.156 59.1433 102.39 59.2488C102.624 59.3543 102.813 59.4769 102.959 59.6164C103.103 59.756 103.197 59.8819 103.24 59.9925V59.2284H104.701V63.9427H103.258H103.256ZM100.074 58.2651C100.112 58.0591 100.182 57.8447 100.282 57.6251C100.381 57.4056 100.515 57.2184 100.682 57.0652C100.849 56.912 101.045 56.8354 101.273 56.8354C101.517 56.8354 101.727 56.8712 101.902 56.9444C102.077 57.0176 102.244 57.089 102.399 57.1605C102.553 57.232 102.716 57.266 102.892 57.266C103.012 57.266 103.11 57.2167 103.184 57.1197C103.259 57.0227 103.309 56.9274 103.332 56.8354H104.189C104.149 57.0414 104.079 57.2558 103.978 57.4754C103.874 57.6949 103.74 57.8821 103.575 58.0353C103.409 58.1885 103.213 58.2651 102.984 58.2651C102.746 58.2651 102.536 58.2293 102.359 58.1562C102.182 58.083 102.015 58.0132 101.861 57.9434C101.706 57.8753 101.546 57.8396 101.38 57.8396C101.265 57.8396 101.167 57.8872 101.089 57.9826C101.012 58.0779 100.96 58.1715 100.933 58.2634H100.076L100.074 58.2651ZM100.672 61.589C100.672 61.8528 100.732 62.0859 100.852 62.2868C100.972 62.4876 101.13 62.6442 101.328 62.7548C101.526 62.8654 101.739 62.9216 101.971 62.9216C102.215 62.9216 102.431 62.8654 102.62 62.7514C102.809 62.6374 102.959 62.4808 103.069 62.28C103.179 62.0791 103.234 61.8477 103.234 61.5873C103.234 61.3269 103.179 61.0971 103.069 60.8946C102.959 60.6937 102.809 60.5355 102.62 60.4214C102.431 60.3074 102.215 60.2495 101.971 60.2495C101.727 60.2495 101.524 60.3057 101.328 60.4197C101.132 60.5338 100.972 60.6903 100.852 60.8912C100.732 61.092 100.672 61.3252 100.672 61.589Z" fill="#1D1D1B"/>
<path d="M107.9 64.0814C107.393 64.0814 106.943 63.9742 106.546 63.7597C106.149 63.5453 105.84 63.2526 105.615 62.8781C105.392 62.5054 105.278 62.0799 105.278 61.6C105.278 61.12 105.39 60.6945 105.615 60.3167C105.84 59.9389 106.149 59.641 106.546 59.4215C106.941 59.2019 107.393 59.0913 107.9 59.0913C108.407 59.0913 108.861 59.2019 109.251 59.4215C109.641 59.641 109.946 59.9406 110.166 60.3167C110.386 60.6945 110.496 61.1217 110.496 61.6C110.496 62.0782 110.386 62.5037 110.166 62.8781C109.946 63.2509 109.641 63.5453 109.251 63.7597C108.861 63.9742 108.41 64.0814 107.9 64.0814ZM107.9 62.8713C108.144 62.8713 108.355 62.8169 108.534 62.7079C108.715 62.599 108.852 62.4475 108.952 62.2535C109.05 62.0595 109.099 61.8416 109.099 61.5966C109.099 61.3515 109.05 61.1319 108.952 60.9362C108.854 60.7405 108.715 60.5873 108.534 60.4733C108.354 60.3593 108.142 60.3031 107.9 60.3031C107.658 60.3031 107.445 60.3593 107.266 60.4733C107.087 60.5873 106.946 60.7405 106.845 60.9362C106.744 61.1319 106.694 61.3515 106.694 61.5966C106.694 61.8416 106.744 62.0612 106.845 62.2535C106.945 62.4475 107.086 62.5973 107.266 62.7079C107.446 62.8169 107.658 62.8713 107.9 62.8713Z" fill="#1D1D1B"/>
<path d="M117.202 61.623C117.202 62.1353 117.111 62.5761 116.929 62.9437C116.747 63.3113 116.484 63.5922 116.141 63.7879C115.797 63.9836 115.383 64.0806 114.9 64.0806C114.541 64.0806 114.233 64.033 113.976 63.9394C113.718 63.8458 113.515 63.7436 113.367 63.633C113.218 63.5224 113.127 63.439 113.093 63.3862L113.654 62.1455C113.701 62.2102 113.768 62.2868 113.857 62.3719C113.946 62.4587 114.06 62.5319 114.199 62.5965C114.338 62.6595 114.505 62.6918 114.697 62.6918C114.921 62.6918 115.111 62.6442 115.268 62.5489C115.424 62.4536 115.544 62.3072 115.627 62.1098C115.709 61.9123 115.752 61.6673 115.752 61.3728V56.3657H117.201V61.6247L117.202 61.623Z" fill="#1D1D1B"/>
<path d="M120.438 64.0814C119.931 64.0814 119.481 63.9742 119.084 63.7597C118.687 63.5453 118.377 63.2526 118.152 62.8781C117.929 62.5054 117.816 62.0799 117.816 61.6C117.816 61.12 117.927 60.6945 118.152 60.3167C118.377 59.9389 118.687 59.641 119.084 59.4215C119.479 59.2019 119.931 59.0913 120.438 59.0913C120.944 59.0913 121.398 59.2019 121.788 59.4215C122.178 59.641 122.484 59.9406 122.704 60.3167C122.924 60.6945 123.034 61.1217 123.034 61.6C123.034 62.0782 122.924 62.5037 122.704 62.8781C122.484 63.2509 122.178 63.5453 121.788 63.7597C121.398 63.9742 120.948 64.0814 120.438 64.0814ZM120.438 62.8713C120.682 62.8713 120.893 62.8169 121.072 62.7079C121.252 62.599 121.389 62.4475 121.489 62.2535C121.587 62.0595 121.637 61.8416 121.637 61.5966C121.637 61.3515 121.587 61.1319 121.489 60.9362C121.391 60.7405 121.252 60.5873 121.072 60.4733C120.891 60.3593 120.68 60.3031 120.438 60.3031C120.195 60.3031 119.982 60.3593 119.804 60.4733C119.625 60.5873 119.484 60.7405 119.383 60.9362C119.281 61.1319 119.231 61.3515 119.231 61.5966C119.231 61.8416 119.281 62.0612 119.383 62.2535C119.482 62.4475 119.623 62.5973 119.804 62.7079C119.984 62.8169 120.195 62.8713 120.438 62.8713Z" fill="#1D1D1B"/>
<path d="M127.417 63.9427V63.1224C127.382 63.2058 127.293 63.3249 127.151 63.4781C127.008 63.6313 126.815 63.7709 126.573 63.8951C126.331 64.0193 126.049 64.0823 125.724 64.0823C125.267 64.0823 124.864 63.9734 124.513 63.7572C124.163 63.5411 123.886 63.245 123.687 62.8671C123.487 62.4893 123.388 62.0638 123.388 61.589C123.388 61.1141 123.487 60.6886 123.687 60.3108C123.886 59.933 124.161 59.6368 124.513 59.4173C124.865 59.1994 125.269 59.0905 125.724 59.0905C126.041 59.0905 126.317 59.1433 126.551 59.2488C126.785 59.3543 126.974 59.4769 127.12 59.6164C127.264 59.756 127.358 59.8819 127.401 59.9925V59.2284H128.862V63.9427H127.419H127.417ZM124.235 58.2651C124.273 58.0591 124.343 57.8447 124.443 57.6251C124.542 57.4056 124.676 57.2184 124.843 57.0652C125.01 56.912 125.206 56.8354 125.434 56.8354C125.678 56.8354 125.888 56.8712 126.063 56.9444C126.238 57.0176 126.405 57.089 126.559 57.1605C126.714 57.232 126.877 57.266 127.053 57.266C127.173 57.266 127.271 57.2167 127.345 57.1197C127.42 57.0227 127.47 56.9274 127.492 56.8354H128.35C128.31 57.0414 128.24 57.2558 128.138 57.4754C128.035 57.6949 127.901 57.8821 127.736 58.0353C127.57 58.1885 127.374 58.2651 127.145 58.2651C126.907 58.2651 126.697 58.2293 126.52 58.1562C126.343 58.083 126.176 58.0132 126.022 57.9434C125.867 57.8753 125.707 57.8396 125.541 57.8396C125.425 57.8396 125.328 57.8872 125.25 57.9826C125.173 58.0779 125.121 58.1715 125.094 58.2634H124.236L124.235 58.2651ZM124.831 61.589C124.831 61.8528 124.891 62.0859 125.011 62.2868C125.132 62.4876 125.29 62.6442 125.487 62.7548C125.685 62.8654 125.898 62.9216 126.13 62.9216C126.374 62.9216 126.59 62.8654 126.779 62.7514C126.968 62.6374 127.118 62.4808 127.228 62.28C127.338 62.0791 127.393 61.8477 127.393 61.5873C127.393 61.3269 127.338 61.0971 127.228 60.8946C127.118 60.6937 126.968 60.5355 126.779 60.4214C126.59 60.3074 126.374 60.2495 126.13 60.2495C125.886 60.2495 125.683 60.3057 125.487 60.4197C125.291 60.5338 125.132 60.6903 125.011 60.8912C124.891 61.092 124.831 61.3252 124.831 61.589Z" fill="#1D1D1B"/>
<path d="M132.06 64.0814C131.553 64.0814 131.102 63.9742 130.706 63.7597C130.309 63.5453 129.999 63.2526 129.774 62.8781C129.551 62.5054 129.438 62.0799 129.438 61.6C129.438 61.12 129.549 60.6945 129.774 60.3167C129.999 59.9389 130.309 59.641 130.706 59.4215C131.101 59.2019 131.553 59.0913 132.06 59.0913C132.566 59.0913 133.02 59.2019 133.41 59.4215C133.8 59.641 134.106 59.9406 134.326 60.3167C134.546 60.6945 134.656 61.1217 134.656 61.6C134.656 62.0782 134.546 62.5037 134.326 62.8781C134.106 63.2509 133.8 63.5453 133.41 63.7597C133.02 63.9742 132.57 64.0814 132.06 64.0814ZM132.06 62.8713C132.304 62.8713 132.515 62.8169 132.694 62.7079C132.874 62.599 133.011 62.4475 133.111 62.2535C133.209 62.0595 133.259 61.8416 133.259 61.5966C133.259 61.3515 133.209 61.1319 133.111 60.9362C133.013 60.7405 132.874 60.5873 132.694 60.4733C132.513 60.3593 132.302 60.3031 132.06 60.3031C131.817 60.3031 131.604 60.3593 131.426 60.4733C131.247 60.5873 131.106 60.7405 131.005 60.9362C130.903 61.1319 130.853 61.3515 130.853 61.5966C130.853 61.8416 130.903 62.0612 131.005 62.2535C131.104 62.4475 131.245 62.5973 131.426 62.7079C131.606 62.8169 131.817 62.8713 132.06 62.8713Z" fill="#1D1D1B"/>
<path d="M140.013 64.0815C139.561 64.0815 139.164 63.9725 138.822 63.7564C138.48 63.5403 138.214 63.2441 138.022 62.8663C137.831 62.4885 137.735 62.063 137.735 61.5881C137.735 61.1133 137.831 60.6878 138.022 60.31C138.212 59.9321 138.48 59.636 138.822 59.4165C139.164 59.1986 139.561 59.0897 140.013 59.0897C140.334 59.0897 140.618 59.1407 140.869 59.2446C141.12 59.3484 141.317 59.4709 141.468 59.6122C141.62 59.7534 141.707 59.8794 141.735 59.9917V56.0415H143.212V63.9419H141.752V63.1216C141.69 63.256 141.577 63.3973 141.41 63.5471C141.243 63.6968 141.041 63.8228 140.802 63.9266C140.563 64.0304 140.3 64.0815 140.013 64.0815ZM140.431 62.9224C140.678 62.9224 140.9 62.8663 141.097 62.7523C141.295 62.6399 141.45 62.4816 141.565 62.2808C141.678 62.08 141.736 61.8485 141.736 61.5881C141.736 61.3277 141.68 61.098 141.565 60.8954C141.451 60.6946 141.295 60.5363 141.097 60.4223C140.9 60.3083 140.678 60.2504 140.431 60.2504C140.202 60.2504 139.994 60.3066 139.805 60.4206C139.616 60.5346 139.463 60.6912 139.35 60.892C139.237 61.0929 139.178 61.326 139.178 61.5898C139.178 61.8536 139.235 62.0868 139.35 62.2876C139.465 62.4885 139.616 62.645 139.805 62.7557C139.994 62.8663 140.204 62.9224 140.431 62.9224Z" fill="#1D1D1B"/>
<path d="M145.014 61.9117C145.026 62.1261 145.085 62.3167 145.188 62.4852C145.291 62.6537 145.444 62.7865 145.643 62.8818C145.843 62.9771 146.083 63.0247 146.365 63.0247C146.612 63.0247 146.832 62.9941 147.023 62.9328C147.214 62.8716 147.377 62.7967 147.509 62.7082C147.643 62.6197 147.739 62.5329 147.801 62.4444L148.416 63.3345C148.305 63.4723 148.159 63.5983 147.982 63.7106C147.805 63.8229 147.576 63.9131 147.301 63.9795C147.025 64.0459 146.679 64.0799 146.267 64.0799C145.745 64.0799 145.288 63.9778 144.892 63.7753C144.497 63.5728 144.19 63.28 143.968 62.8971C143.746 62.5141 143.635 62.058 143.635 61.5304C143.635 61.0709 143.734 60.6573 143.934 60.288C144.133 59.9187 144.42 59.626 144.798 59.4115C145.174 59.1971 145.628 59.0898 146.157 59.0898C146.655 59.0898 147.087 59.1852 147.453 59.3741C147.819 59.563 148.1 59.8404 148.301 60.2046C148.502 60.5688 148.604 61.013 148.604 61.5372C148.604 61.5679 148.604 61.6308 148.6 61.7261C148.599 61.8215 148.593 61.8827 148.585 61.91H145.014V61.9117ZM147.224 61.0113C147.221 60.8888 147.183 60.756 147.111 60.6148C147.038 60.4735 146.927 60.3527 146.774 60.2523C146.621 60.1519 146.422 60.1025 146.174 60.1025C145.927 60.1025 145.717 60.1519 145.557 60.2489C145.398 60.3459 145.277 60.4633 145.198 60.6012C145.119 60.739 145.071 60.8752 145.056 61.0096H147.224V61.0113Z" fill="#1D1D1B"/>
<path d="M150.736 63.9439H149.258V56.0435H150.736V63.9439Z" fill="#1D1D1B"/>
<path d="M154.284 56.3647H157.229C157.662 56.3647 158.05 56.4532 158.394 56.632C158.738 56.8107 159.011 57.0676 159.214 57.4063C159.416 57.745 159.518 58.1535 159.518 58.6317C159.518 59.11 159.428 59.4963 159.251 59.801C159.074 60.1056 158.86 60.3337 158.611 60.4868C158.361 60.64 158.129 60.7285 157.918 60.7507L159.796 63.9435H158.162L156.463 60.8596H155.727V63.9435H154.284V56.3647ZM155.727 59.8503H156.714C157.081 59.8503 157.392 59.7601 157.65 59.5797C157.908 59.3993 158.035 59.0981 158.035 58.6726C158.035 58.2471 157.908 57.9476 157.652 57.774C157.397 57.6004 157.088 57.5136 156.724 57.5136H155.727V59.8503Z" fill="#1D1D1B"/>
<path d="M161.733 61.9117C161.745 62.1261 161.803 62.3167 161.906 62.4852C162.009 62.6537 162.162 62.7865 162.361 62.8818C162.561 62.9771 162.801 63.0247 163.083 63.0247C163.33 63.0247 163.55 62.9941 163.741 62.9328C163.932 62.8716 164.095 62.7967 164.227 62.7082C164.361 62.6197 164.458 62.5329 164.519 62.4444L165.135 63.3345C165.023 63.4723 164.877 63.5983 164.7 63.7106C164.523 63.8229 164.294 63.9131 164.019 63.9795C163.743 64.0459 163.397 64.0799 162.985 64.0799C162.463 64.0799 162.006 63.9778 161.611 63.7753C161.215 63.5728 160.908 63.28 160.686 62.8971C160.465 62.5141 160.353 62.058 160.353 61.5304C160.353 61.0709 160.452 60.6573 160.652 60.288C160.851 59.9187 161.138 59.626 161.516 59.4115C161.892 59.1971 162.346 59.0898 162.875 59.0898C163.373 59.0898 163.805 59.1852 164.171 59.3741C164.537 59.563 164.818 59.8404 165.019 60.2046C165.22 60.5688 165.322 61.013 165.322 61.5372C165.322 61.5679 165.322 61.6308 165.318 61.7261C165.317 61.8215 165.312 61.8827 165.303 61.91H161.733V61.9117ZM163.94 61.0113C163.937 60.8888 163.899 60.756 163.827 60.6148C163.755 60.4735 163.643 60.3527 163.49 60.2523C163.337 60.1519 163.138 60.1025 162.891 60.1025C162.643 60.1025 162.434 60.1519 162.274 60.2489C162.114 60.3459 161.994 60.4633 161.915 60.6012C161.836 60.739 161.788 60.8752 161.772 61.0096H163.94V61.0113Z" fill="#1D1D1B"/>
<path d="M166.798 58.0124C166.554 58.0124 166.35 57.929 166.181 57.7605C166.013 57.592 165.929 57.3912 165.929 57.158C165.929 56.9249 166.013 56.7223 166.183 56.5487C166.353 56.3751 166.557 56.29 166.798 56.29C166.956 56.29 167.102 56.3292 167.233 56.4075C167.363 56.4858 167.47 56.5913 167.551 56.7206C167.631 56.85 167.672 56.9963 167.672 57.1563C167.672 57.3895 167.587 57.5903 167.415 57.7588C167.243 57.9273 167.037 58.0107 166.798 58.0107V58.0124ZM166.045 63.9437V59.2293H167.513V63.9437H166.045Z" fill="#1D1D1B"/>
<path d="M170.659 61.9514V60.7056H175.545V61.9514H170.659Z" fill="#1D1D1B"/>
<path d="M186.28 56.3647V63.9435H184.837V59.0913L184.907 57.9884L184.646 59.2393L183.145 63.4023H181.718L180.224 59.2393L179.969 57.9884L180.033 59.0913V63.9435H178.584V56.3647H180.59L182.34 61.7684L182.433 62.2858L182.526 61.7684L184.282 56.3647H186.282H186.28Z" fill="#1D1D1B"/>
<path d="M190.918 59.7547H194.801V60.2091C194.801 60.7486 194.708 61.2524 194.526 61.7221C194.342 62.1919 194.081 62.602 193.741 62.956C193.401 63.3101 192.999 63.5875 192.533 63.7849C192.067 63.984 191.554 64.0844 190.993 64.0844C190.433 64.0844 189.892 63.9823 189.416 63.7798C188.94 63.5773 188.531 63.2964 188.188 62.9356C187.844 62.5765 187.578 62.1578 187.39 61.6813C187.203 61.2048 187.109 60.6942 187.109 60.1513C187.109 59.6083 187.201 59.1029 187.39 58.6263C187.578 58.1498 187.844 57.7328 188.188 57.3754C188.531 57.018 188.942 56.7372 189.416 56.5346C189.892 56.3321 190.418 56.23 190.993 56.23C191.438 56.23 191.834 56.2776 192.182 56.3729C192.531 56.4683 192.835 56.5976 193.095 56.761C193.354 56.9244 193.581 57.1031 193.774 57.3005C193.964 57.4979 194.124 57.6954 194.251 57.8945L192.896 58.5497C192.71 58.2825 192.464 58.0528 192.157 57.8604C191.849 57.6698 191.463 57.5728 190.995 57.5728C190.648 57.5728 190.327 57.6409 190.036 57.777C189.744 57.9132 189.493 58.1004 189.282 58.337C189.071 58.5736 188.908 58.8493 188.792 59.1607C188.677 59.4722 188.619 59.8024 188.619 60.1513C188.619 60.5002 188.677 60.8354 188.792 61.1452C188.909 61.4549 189.071 61.7307 189.282 61.9689C189.493 62.2089 189.744 62.3944 190.036 62.5289C190.329 62.6633 190.648 62.7297 190.995 62.7297C191.311 62.7297 191.6 62.6837 191.859 62.5918C192.119 62.4999 192.344 62.3706 192.535 62.2021C192.725 62.0336 192.878 61.8362 192.99 61.6081C193.102 61.3801 193.165 61.135 193.181 60.8712H190.92V59.7581L190.918 59.7547Z" fill="#1D1D1B"/>
</svg>
