<svg width="38" height="38" viewBox="0 0 38 38" fill="none" xmlns="http://www.w3.org/2000/svg">
<path d="M8.09703 27.3733C7.65447 27.4043 7.11036 27.3216 6.57038 27.4149C6.50103 27.4267 6.47213 27.3762 6.43538 27.3399C4.9719 25.8959 3.48158 24.4766 2.05525 22.998C0.901385 21.8018 0.450573 20.3293 0.613641 18.6845C0.746986 17.3389 1.32701 16.2039 2.2984 15.2528C3.65538 13.9244 5.00493 12.5886 6.35364 11.2516C6.46428 11.1421 6.56047 11.077 6.72478 11.1303C6.8123 11.1588 6.91551 11.1425 7.01128 11.1429C7.80186 11.147 8.59325 11.1356 9.38341 11.1576C10.3903 11.1857 11.2399 11.5863 11.9487 12.2849C13.7879 14.0974 15.6258 15.9107 17.4646 17.7241C18.535 18.7797 20.15 18.827 21.2362 17.7872C22.6279 16.4551 23.9832 15.0859 25.3591 13.7379C25.9491 13.1598 26.5056 12.5459 27.1405 12.0146C27.8308 11.4368 28.6498 11.173 29.5502 11.16C30.1897 11.1506 30.8329 11.1966 31.4678 11.1421C31.7894 11.1144 31.9504 11.2463 32.1395 11.4336C33.5072 12.7901 34.9046 14.1182 36.2414 15.5036C37.4014 16.7059 37.8601 18.1796 37.6966 19.8322C37.5633 21.1777 36.9832 22.3132 36.0118 23.2642C34.6499 24.5976 33.2958 25.9386 31.9409 27.2789C31.853 27.366 31.7799 27.4214 31.6404 27.3717C31.5425 27.3371 31.4228 27.3619 31.313 27.3591C30.5782 27.3408 29.8413 27.403 29.1077 27.3224C28.2382 27.2272 27.4873 26.8746 26.8685 26.2668C25.0557 24.486 23.2434 22.7048 21.4426 20.9119C20.9113 20.383 20.2995 20.0508 19.544 20.0141C18.753 19.9759 18.0541 20.214 17.4869 20.7726C15.6564 22.5741 13.8251 24.3753 12.0016 26.1841C11.1937 26.9857 10.2281 27.3868 9.0837 27.3745C8.78811 27.3713 8.49211 27.3741 8.09744 27.3741L8.09703 27.3733Z" fill="white"/>
<path d="M30.1913 9.56327C30.1038 9.56327 30.0242 9.56693 29.9449 9.56286C28.1268 9.47003 26.646 10.1406 25.3864 11.421C23.6814 13.1537 21.9302 14.8424 20.1988 16.5495C19.6836 17.0576 19.0891 17.0576 18.5722 16.5479C16.7384 14.7399 14.9063 12.9302 13.0708 11.1238C11.9987 10.0685 10.6999 9.54535 9.18775 9.53314C8.84468 9.53029 8.50162 9.53273 8.15567 9.53273C8.147 9.44968 8.21429 9.42444 8.2531 9.38576C10.5815 7.08714 12.8979 4.7763 15.246 2.49762C16.4854 1.29538 18.0124 0.807241 19.7442 0.974162C21.0934 1.10444 22.2361 1.66627 23.1926 2.61162C25.476 4.86831 27.7639 7.12052 30.0485 9.37599C30.0993 9.42606 30.1707 9.46271 30.1913 9.56327Z" fill="white"/>
<path d="M8.15358 28.9834C8.23367 28.9834 8.31376 28.9781 8.39343 28.9842C10.5084 29.1438 12.203 28.3825 13.6467 26.8521C15.2241 25.1797 16.9101 23.6069 18.5491 21.9911C19.0849 21.463 19.6885 21.4638 20.2256 21.9939C22.0103 23.7539 23.799 25.5094 25.5775 27.2755C26.4296 28.122 27.4303 28.6789 28.625 28.8857C28.8822 28.9301 29.1415 28.9566 29.4032 28.9541C29.6575 28.9517 29.9118 28.9557 30.1661 28.9578C30.1707 28.9578 30.1752 28.9651 30.1839 28.9724C30.1851 29.0421 30.1207 29.0693 30.0803 29.1088C27.7474 31.4115 25.4252 33.7256 23.0741 36.0104C21.8352 37.2143 20.311 37.7069 18.58 37.5444C17.2078 37.4158 16.0548 36.8356 15.0834 35.8736C12.8371 33.6483 10.5823 31.4311 8.33027 29.2114C8.26711 29.1491 8.19775 29.093 8.13129 29.0343C8.13872 29.0176 8.14574 29.0009 8.15317 28.9842L8.15358 28.9834Z" fill="white"/>
</svg>
