<svg width="23" height="21" viewBox="0 0 23 21" fill="none" xmlns="http://www.w3.org/2000/svg">
<path d="M12.9329 10.5038C12.2376 9.80518 11.7658 8.91759 11.5767 7.9528C11.3877 6.98801 11.4898 5.98914 11.8704 5.08198C12.2509 4.17483 12.8928 3.39994 13.7152 2.85489C14.5377 2.30985 15.5038 2.01901 16.4921 2.01901C17.4804 2.01901 18.4466 2.30985 19.269 2.85489C20.0914 3.39994 20.7333 4.17483 21.1139 5.08198C21.4944 5.98914 21.5966 6.98801 21.4075 7.9528C21.2184 8.91759 20.7466 9.80518 20.0514 10.5038L11.6871 19L2.96692 10.5038C2.02767 9.5696 1.5 8.30256 1.5 6.98141C1.5 5.66026 2.02767 4.39322 2.96692 3.45902C3.90618 2.52483 5.18008 2 6.50839 2C7.8367 2 9.1106 2.52483 10.0499 3.45902C10.5133 3.91875 10.8807 4.46505 11.1312 5.0665C11.3816 5.66796 11.5101 6.31271 11.5092 6.96371" stroke="white" stroke-width="3" stroke-linecap="round" stroke-linejoin="round"/>
</svg>
