<svg width="37" height="37" viewBox="0 0 37 37" fill="none" xmlns="http://www.w3.org/2000/svg">
<path d="M35.4094 10.8052C34.231 10.8052 33.1049 11.187 32.175 11.892V5.53174C32.175 3.78707 30.7556 2.36768 29.0109 2.36768C28.5995 2.36768 28.2061 2.44664 27.8452 2.59014C27.4789 1.24795 26.249 0.258301 24.7922 0.258301C23.3354 0.258301 22.1054 1.24795 21.7391 2.59014C21.3783 2.44664 20.9849 2.36768 20.5734 2.36768C19.7638 2.36768 19.0242 2.67332 18.464 3.17529C17.9039 2.67332 17.1644 2.36768 16.3546 2.36768C15.9432 2.36768 15.5498 2.44664 15.1889 2.59014C14.8226 1.24795 13.5927 0.258301 12.1359 0.258301C10.6791 0.258301 9.44917 1.24795 9.08284 2.59014C8.72193 2.44664 8.3286 2.36768 7.91713 2.36768C6.17246 2.36768 4.75306 3.78707 4.75306 5.53174V11.8938C3.82296 11.1885 2.69733 10.8052 1.51868 10.8052C0.936209 10.8052 0.463989 11.2774 0.463989 11.8599C0.463989 12.5202 0.463989 24.7734 0.463989 24.9483C0.463989 26.3569 1.0125 27.6812 2.00848 28.6772C2.0134 28.6821 2.01839 28.687 2.02338 28.6918L3.83323 30.4316C4.42646 31.0284 4.75306 31.8201 4.75306 32.662V35.2036C4.75306 35.7861 5.22528 36.2583 5.80775 36.2583H31.1203C31.7028 36.2583 32.175 35.7861 32.175 35.2036V32.662C32.175 31.82 32.5016 31.0283 33.095 30.4314L34.9046 28.6918C34.9096 28.687 34.9146 28.6821 34.9194 28.6772C35.9155 27.6812 36.464 26.3569 36.464 24.9483C36.464 24.4013 36.464 12.3395 36.464 11.8599C36.4641 11.2774 35.9918 10.8052 35.4094 10.8052ZM27.9562 5.53174C27.9562 4.95018 28.4294 4.47705 29.0109 4.47705C29.5925 4.47705 30.0656 4.95018 30.0656 5.53174V17.1926C29.6668 17.2373 29.2754 17.3068 28.8929 17.3999C28.9703 16.8185 28.9692 16.2244 28.8904 15.6115C28.7696 14.6712 28.4398 13.8004 27.9562 13.0483V5.53174ZM23.7375 3.42236C23.7375 2.84081 24.2106 2.36768 24.7922 2.36768C25.3737 2.36768 25.8469 2.84081 25.8469 3.42236V11.0537C25.2013 10.6934 24.4875 10.4597 23.7375 10.3825V3.42236ZM19.5187 5.53174C19.5187 4.95018 19.9918 4.47705 20.5734 4.47705C21.155 4.47705 21.6281 4.95018 21.6281 5.53174V10.5775C20.8557 10.8107 20.1471 11.2239 19.5187 11.8083V5.53174ZM15.3 5.53174C15.3 4.95018 15.7731 4.47705 16.3546 4.47705C16.9362 4.47705 17.4093 4.95018 17.4093 5.53174V11.8084C16.781 11.2239 16.0723 10.8107 15.3 10.5775V5.53174ZM11.0812 3.42236C11.0812 2.84081 11.5543 2.36768 12.1359 2.36768C12.7174 2.36768 13.1906 2.84081 13.1906 3.42236V10.3825C12.4406 10.4597 11.7267 10.6934 11.0812 11.0537V3.42236ZM6.86244 5.53174C6.86244 4.95018 7.33557 4.47705 7.91713 4.47705C8.49868 4.47705 8.97182 4.95018 8.97182 5.53174V13.0483C8.48828 13.8004 8.15844 14.6712 8.03764 15.6115C7.95889 16.2244 7.95777 16.8185 8.03518 17.3999C7.65268 17.3068 7.26125 17.2372 6.86244 17.1926C6.86244 16.7088 6.86244 6.01155 6.86244 5.53174ZM17.4093 34.1489H6.86244V32.662C6.86244 31.2535 6.31393 29.9292 5.31788 28.9331C5.31296 28.9282 5.30797 28.9234 5.30305 28.9186L3.49341 27.179C2.90004 26.5821 2.57337 25.7903 2.57337 24.9483C2.57337 24.6359 2.57337 13.4111 2.57337 13.0943C3.82725 13.5332 4.75306 14.7228 4.75306 16.0786V18.188C4.75306 18.7705 5.22528 19.2427 5.80775 19.2427C9.87864 19.2427 13.1906 22.5862 13.1906 26.6958C13.1906 27.2783 13.6628 27.7505 14.2453 27.7505C14.8277 27.7505 15.3 27.2783 15.3 26.6958C15.3 26.6233 15.2988 26.5512 15.2972 26.4791C16.0131 27.0993 16.6672 27.6645 17.4093 28.3072C17.4093 28.9687 17.4093 33.4934 17.4093 34.1489ZM14.5895 23.067C13.7781 21.0818 12.3222 19.4298 10.4854 18.3775C10.1296 17.5677 10.016 16.7667 10.1299 15.8803C10.3746 13.9765 11.8902 12.5075 13.6556 12.4634C16.4534 12.3934 17.4093 15.6412 17.4477 15.7758C17.5742 16.2327 17.99 16.5491 18.4641 16.5491C18.9382 16.5491 19.354 16.2327 19.4805 15.7758C19.4899 15.742 20.4492 12.3916 23.2726 12.4634C25.038 12.5075 26.5537 13.9764 26.7983 15.8802C26.9122 16.7666 26.7986 17.5676 26.4428 18.3774C24.606 19.4298 23.1502 21.0816 22.3388 23.067C21.1924 24.0716 19.8573 25.2241 18.4642 26.4301C17.0858 25.2369 15.7416 24.0767 14.5895 23.067ZM34.3547 24.9483C34.3547 25.7902 34.0281 26.5819 33.4348 27.1788L31.6249 28.9186C31.6199 28.9234 31.615 28.9282 31.6101 28.9331C30.6141 29.9292 30.0656 31.2535 30.0656 32.662V34.1489H19.5187C19.5187 33.4935 19.5187 28.9686 19.5187 28.3072C20.2521 27.672 20.9251 27.0903 21.6308 26.479C21.6292 26.5511 21.6281 26.6233 21.6281 26.6958C21.6281 27.2783 22.1003 27.7505 22.6828 27.7505C23.2653 27.7505 23.7375 27.2783 23.7375 26.6958C23.7375 22.5862 27.0494 19.2427 31.1203 19.2427C31.7028 19.2427 32.175 18.7705 32.175 18.188V16.0786C32.175 14.7228 33.1008 13.5332 34.3547 13.0943C34.3547 13.6084 34.3547 24.4144 34.3547 24.9483Z" fill="white"/>
</svg>
