<svg width="33" height="37" viewBox="0 0 33 37" fill="none" xmlns="http://www.w3.org/2000/svg">
<path d="M7.62536 8.2635L7.62534 8.26395L7.6254 8.26465L7.62533 8.26465L7.62515 8.26835C7.56688 9.44486 7.74722 10.6195 8.15979 11.723C3.43293 13.6665 0.231665 18.3764 0.231665 23.6021C0.231665 30.6195 5.93797 36.3583 12.9879 36.3583C14.2365 36.3583 15.363 35.8256 16.152 34.9762C16.941 35.8256 18.0675 36.3583 19.316 36.3583C26.3589 36.3583 32.0723 30.6272 32.0723 23.6021C32.0723 18.3764 28.871 13.6664 24.1442 11.723C24.5564 10.6201 24.7371 9.44562 24.6788 8.26842L24.6788 8.26763L24.6786 8.26344L24.6786 8.26343C24.4526 3.75579 20.7147 0.158301 16.152 0.158301C11.5893 0.158301 7.85133 3.75587 7.62536 8.2635ZM16.1448 22.6744H16.1456L16.1487 22.6745L16.1542 22.6745C16.6663 22.6745 17.1134 22.3292 17.2588 21.8405C17.2587 21.8409 17.2841 21.7576 17.3406 21.6328C17.3971 21.508 17.4839 21.3434 17.6062 21.1797C17.8511 20.8522 18.2302 20.538 18.7887 20.538C19.7602 20.538 20.2707 21.2909 20.2707 22.0488C20.2707 22.3697 20.1521 22.699 19.9326 23.0429C19.713 23.3869 19.3958 23.7402 19.0071 24.1071C18.3993 24.6808 17.6275 25.2782 16.8004 25.9184C16.5881 26.0827 16.3722 26.2498 16.1545 26.4201C15.949 26.2574 15.7502 26.1007 15.5584 25.9495C14.542 25.1484 13.7201 24.5005 13.1234 23.922C12.4011 23.2219 12.0332 22.6455 12.0332 22.0488C12.0332 21.2909 12.5437 20.538 13.5153 20.538C14.0512 20.538 14.4235 20.8324 14.6707 21.15C14.9157 21.4648 15.0294 21.7928 15.0464 21.8448C15.187 22.3381 15.6334 22.6702 16.1448 22.6744ZM16.152 2.46768C19.3122 2.46768 21.9303 4.83407 22.3276 7.88794C21.7809 8.34156 21.0894 8.5958 20.3707 8.5958C18.6813 8.5958 17.3067 7.22117 17.3067 5.53174C17.3067 4.89404 16.7897 4.37705 16.152 4.37705C15.5143 4.37705 14.9973 4.89404 14.9973 5.53174C14.9973 7.22117 13.6227 8.5958 11.9332 8.5958C11.2146 8.5958 10.5231 8.34156 9.97639 7.88788C10.3737 4.83407 12.9917 2.46768 16.152 2.46768ZM22.0814 10.6241C21.2739 13.1575 18.9204 14.9942 16.152 14.9942C13.3835 14.9942 11.03 13.1575 10.2225 10.6241C10.7685 10.8078 11.3456 10.9052 11.9332 10.9052C13.6423 10.9052 15.1674 10.1032 16.152 8.85637C17.1366 10.1032 18.6617 10.9052 20.3707 10.9052C20.9584 10.9052 21.5355 10.8079 22.0814 10.6241ZM12.9879 34.0489C12.5091 34.0489 12.0379 34.0158 11.5759 33.953C11.1835 33.363 10.9785 32.709 10.9785 32.0396C10.9785 31.2894 11.2419 30.5497 11.733 29.907C12.1391 29.9877 12.5587 30.0302 12.9879 30.0302C14.0958 30.0302 14.9973 30.9317 14.9973 32.0396C14.9973 33.1474 14.0958 34.0489 12.9879 34.0489ZM16.2041 29.0492C16.1866 29.0675 16.1692 29.0859 16.152 29.1045C16.1348 29.0859 16.1174 29.0675 16.0998 29.0492C16.1172 29.05 16.1346 29.0504 16.152 29.0504C16.1694 29.0504 16.1868 29.05 16.2041 29.0492ZM21.3254 32.0396C21.3254 32.709 21.1205 33.363 20.7281 33.953C20.2661 34.0158 19.7949 34.0489 19.3161 34.0489C18.2082 34.0489 17.3067 33.1474 17.3067 32.0396C17.3067 30.9317 18.2082 30.0302 19.316 30.0302C19.7454 30.0302 20.165 29.9877 20.571 29.907C21.062 30.5498 21.3254 31.2894 21.3254 32.0396ZM29.7629 23.6021C29.7629 27.8673 27.1932 31.5438 23.5203 33.1649C23.5957 32.7966 23.6348 32.4204 23.6348 32.0396C23.6348 30.978 23.331 29.9447 22.764 29.0248C24.554 27.8827 25.7442 25.879 25.7442 23.6021C25.7442 22.9644 25.2272 22.4474 24.5895 22.4474C23.9518 22.4474 23.4348 22.9644 23.4348 23.6021C23.4348 25.873 21.587 27.7208 19.316 27.7208C18.8445 27.7208 18.3905 27.797 17.9655 27.9375C18.0462 27.8749 18.1267 27.8126 18.2068 27.7506C19.2292 26.9592 20.1952 26.2114 20.9549 25.4308C21.9292 24.4296 22.5801 23.359 22.5801 22.0488C22.5801 19.9083 20.9146 18.2286 18.7887 18.2286C17.7709 18.2286 16.8676 18.6123 16.152 19.3417C15.4363 18.6123 14.5331 18.2286 13.5153 18.2286C11.3894 18.2286 9.72385 19.9083 9.72385 22.0488C9.72385 23.3117 10.3018 24.3196 11.2427 25.3031C11.9913 26.0856 12.9786 26.8611 14.1001 27.7421C14.1848 27.8087 14.2702 27.8758 14.3564 27.9436C13.9262 27.7992 13.4661 27.7208 12.9879 27.7208C10.7169 27.7208 8.86917 25.873 8.86917 23.6021C8.86917 22.9644 8.35217 22.4474 7.71448 22.4474C7.07678 22.4474 6.55979 22.9644 6.55979 23.6021C6.55979 25.879 7.74991 27.8827 9.54 29.0248C8.97293 29.9447 8.66916 30.978 8.66916 32.0396C8.66916 32.4204 8.70823 32.7966 8.7837 33.1649C5.11074 31.5438 2.54104 27.8673 2.54104 23.6021C2.54104 19.2318 5.26633 15.3026 9.26018 13.7705C10.8144 15.9105 13.3245 17.3036 16.152 17.3036C18.9795 17.3036 21.4896 15.9105 23.0438 13.7704C27.0376 15.3025 29.7629 19.2317 29.7629 23.6021Z" fill="white" stroke="white" stroke-width="0.2"/>
</svg>
