<svg width="37" height="37" viewBox="0 0 37 37" fill="none" xmlns="http://www.w3.org/2000/svg">
<path d="M18.5964 0.258301C16.2702 0.258301 14.3777 2.15083 14.3777 4.47705C14.3777 6.80327 16.2702 8.6958 18.5964 8.6958C20.9227 8.6958 22.8152 6.80327 22.8152 4.47705C22.8152 2.15083 20.9227 0.258301 18.5964 0.258301ZM18.5964 6.58643C17.4333 6.58643 16.4871 5.64016 16.4871 4.47705C16.4871 3.31394 17.4333 2.36768 18.5964 2.36768C19.7595 2.36768 20.7058 3.31394 20.7058 4.47705C20.7058 5.64016 19.7595 6.58643 18.5964 6.58643Z" fill="white"/>
<path d="M28.0886 0.258301C25.7624 0.258301 23.8699 2.15083 23.8699 4.47705C23.8699 6.80327 25.7624 8.6958 28.0886 8.6958C30.4148 8.6958 32.3074 6.80327 32.3074 4.47705C32.3074 2.15083 30.4148 0.258301 28.0886 0.258301ZM28.0886 6.58643C26.9255 6.58643 25.9792 5.64016 25.9792 4.47705C25.9792 3.31394 26.9255 2.36768 28.0886 2.36768C29.2517 2.36768 30.198 3.31394 30.198 4.47705C30.198 5.64016 29.2517 6.58643 28.0886 6.58643Z" fill="white"/>
<path d="M9.10425 0.258301C6.77803 0.258301 4.8855 2.15083 4.8855 4.47705C4.8855 6.80327 6.77803 8.6958 9.10425 8.6958C11.4305 8.6958 13.323 6.80327 13.323 4.47705C13.323 2.15083 11.4305 0.258301 9.10425 0.258301ZM9.10425 6.58643C7.94114 6.58643 6.99487 5.64016 6.99487 4.47705C6.99487 3.31394 7.94114 2.36768 9.10425 2.36768C10.2674 2.36768 11.2136 3.31394 11.2136 4.47705C11.2136 5.64016 10.2674 6.58643 9.10425 6.58643Z" fill="white"/>
<path d="M31.2527 8.6958H28.0886C27.1322 8.6958 19.5518 8.6958 18.5964 8.6958C18.1994 8.6958 9.50032 8.6958 9.10425 8.6958H5.94019C3.02482 8.6958 0.596436 11.0537 0.596436 13.9692V20.3677C0.596436 22.1164 2.07975 23.5317 3.83081 23.5317C4.20044 23.5317 4.55552 23.468 4.8855 23.351C4.8855 23.6472 4.8855 32.8803 4.8855 33.0942C4.8855 34.8389 6.3049 36.2583 8.04956 36.2583C8.85935 36.2583 9.59869 35.9522 10.1589 35.4501C10.7192 35.9522 11.4585 36.2583 12.2683 36.2583C13.0781 36.2583 13.8174 35.9522 14.3777 35.4501C14.9379 35.9522 15.6773 36.2583 16.4871 36.2583C17.2967 36.2583 18.0363 35.9527 18.5964 35.4507C19.1566 35.9527 19.8962 36.2583 20.7058 36.2583C21.5155 36.2583 22.255 35.9527 22.8152 35.4507C23.3754 35.9527 24.1149 36.2583 24.9246 36.2583C25.7344 36.2583 26.4737 35.9522 27.0339 35.4501C27.5942 35.9522 28.3335 36.2583 29.1433 36.2583C30.888 36.2583 32.3074 34.8389 32.3074 33.0942C32.3074 32.7687 32.3074 23.6452 32.3074 23.3307C32.6642 23.4628 33.0442 23.5317 33.4324 23.5317C35.177 23.5317 36.5964 22.1123 36.5964 20.3677V13.9692C36.5964 11.0538 34.1682 8.6958 31.2527 8.6958ZM34.4871 20.3677C34.4871 20.9492 34.0139 21.4224 33.4324 21.4224C32.8331 21.4224 32.3074 20.9295 32.3074 20.3677V13.9692C32.3074 13.3868 31.8352 12.9146 31.2527 12.9146C30.6702 12.9146 30.198 13.3868 30.198 13.9692V22.4771C30.198 22.9107 30.198 32.6042 30.198 33.0942C30.198 33.6758 29.7249 34.1489 29.1433 34.1489C28.5618 34.1489 28.0886 33.6758 28.0886 33.0942V22.4771C28.0886 21.8946 27.6164 21.4224 27.0339 21.4224C26.4515 21.4224 25.9792 21.8946 25.9792 22.4771V33.0942C25.9792 33.6758 25.5061 34.1489 24.9246 34.1489C24.343 34.1489 23.8699 33.6758 23.8699 33.0942V13.9692C23.8699 13.3868 23.3977 12.9146 22.8152 12.9146C22.2327 12.9146 21.7605 13.3868 21.7605 13.9692V33.0942C21.7605 33.6758 21.2874 34.1489 20.7058 34.1489C20.1243 34.1489 19.6511 33.6758 19.6511 33.0942V22.4771C19.6511 21.8946 19.1789 21.4224 18.5964 21.4224C18.014 21.4224 17.5417 21.8946 17.5417 22.4771V33.0942C17.5417 33.6758 17.0686 34.1489 16.4871 34.1489C15.9055 34.1489 15.4324 33.6758 15.4324 33.0942V22.4771V13.9692C15.4324 13.3868 14.9602 12.9146 14.3777 12.9146C13.7952 12.9146 13.323 13.3868 13.323 13.9692V22.4771V33.0942C13.323 33.6758 12.8499 34.1489 12.2683 34.1489C11.6868 34.1489 11.2136 33.6758 11.2136 33.0942V22.4771C11.2136 21.8946 10.7414 21.4224 10.1589 21.4224C9.57647 21.4224 9.10425 21.8946 9.10425 22.4771V33.0942C9.10425 33.6758 8.63111 34.1489 8.04956 34.1489C7.46801 34.1489 6.99487 33.6758 6.99487 33.0942C6.99487 32.6018 6.99487 22.9095 6.99487 22.4771V13.9692C6.99487 13.3868 6.52265 12.9146 5.94019 12.9146C5.35772 12.9146 4.8855 13.3868 4.8855 13.9692V20.3677C4.8855 20.9492 4.41237 21.4224 3.83081 21.4224C3.23154 21.4224 2.70581 20.9295 2.70581 20.3677V13.9692C2.70581 12.2541 4.18694 10.8052 5.94019 10.8052C6.20695 10.8052 30.6697 10.8052 31.2527 10.8052C33.0059 10.8052 34.4871 12.2541 34.4871 13.9692V20.3677Z" fill="white"/>
</svg>
