<svg width="42" height="41" viewBox="0 0 42 41" fill="none" xmlns="http://www.w3.org/2000/svg">
<path fill-rule="evenodd" clip-rule="evenodd" d="M29.8469 3.26844C27.6988 3.07795 24.9282 3.075 20.9538 3.075C16.9795 3.075 14.209 3.07795 12.0608 3.26844C9.95588 3.45509 8.75908 3.80222 7.85854 4.31092C6.4254 5.12057 5.2351 6.28511 4.40748 7.6875C3.88765 8.56859 3.53292 9.73949 3.34204 11.799C3.1474 13.9007 3.14426 16.6115 3.14426 20.5C3.14426 24.3884 3.1474 27.0994 3.34204 29.201C3.53292 31.2605 3.88765 32.4314 4.40748 33.3125C5.23509 34.7149 6.4254 35.8795 7.85854 36.6891C8.75908 37.1979 9.95588 37.5449 12.0608 37.7315C14.209 37.9221 16.9795 37.925 20.9538 37.925C24.9282 37.925 27.6988 37.9221 29.8469 37.7315C31.9518 37.5449 33.1486 37.1979 34.0491 36.6891C35.4824 35.8795 36.6727 34.7149 37.5002 33.3125C38.0201 32.4314 38.3749 31.2605 38.5657 29.201C38.7604 27.0994 38.7634 24.3884 38.7634 20.5C38.7634 16.6115 38.7604 13.9007 38.5657 11.799C38.3749 9.73949 38.0201 8.56859 37.5002 7.6875C36.6727 6.28512 35.4824 5.12057 34.0491 4.31092C33.1486 3.80222 31.9518 3.45509 29.8469 3.26844ZM35.6205 1.64789C32.7033 -4.02272e-07 28.7868 -5.73468e-07 20.9538 -9.15862e-07C13.1209 -1.25825e-06 9.20432 -1.42945e-06 6.28712 1.64788C4.37605 2.72744 2.78912 4.28015 1.68576 6.15C0.0013996 9.00421 0.00139943 12.8362 0.0013991 20.5C0.00139876 28.1639 0.0013986 31.9958 1.68576 34.85C2.78911 36.7198 4.37605 38.2725 6.28712 39.3522C9.20431 41 13.1209 41 20.9538 41C28.7868 41 32.7033 41 35.6205 39.3522C37.5316 38.2725 39.1186 36.7198 40.222 34.85C41.9062 31.9958 41.9062 28.1639 41.9062 20.5C41.9062 12.8362 41.9062 9.00422 40.222 6.15C39.1186 4.28015 37.5316 2.72744 35.6205 1.64789Z" fill="#FAEB4B"/>
<path fill-rule="evenodd" clip-rule="evenodd" d="M28.5124 20.199C29.1261 20.7995 29.1261 21.7728 28.5124 22.3733L22.2267 28.5233C21.6131 29.1237 20.618 29.1237 20.0043 28.5233L13.7186 22.3733C13.1049 21.7728 13.1049 20.7995 13.7186 20.199C14.3323 19.5986 15.3273 19.5986 15.941 20.199L19.5442 23.7244L19.5442 12.6762C19.5442 11.827 20.2476 11.1387 21.1156 11.1387C21.9835 11.1387 22.687 11.827 22.687 12.6762L22.687 23.7242L26.2901 20.199C26.9037 19.5986 27.8987 19.5986 28.5124 20.199Z" fill="#FAEB4B"/>
</svg>
