<svg width="28" height="28" viewBox="0 0 28 28" fill="none" xmlns="http://www.w3.org/2000/svg">
<path d="M20.5271 0.381165H7.11816C3.43136 0.381165 0.413696 3.39817 0.413696 7.08563V20.4952C0.413696 24.1814 3.43136 27.1997 7.11816 27.1997H20.5271C24.2146 27.1997 27.2316 24.1814 27.2316 20.4952V7.08563C27.2316 3.39817 24.2139 0.381165 20.5271 0.381165ZM24.997 20.4952C24.997 22.959 22.9928 24.9644 20.5277 24.9644H7.11816C4.65375 24.9644 2.64895 22.959 2.64895 20.4946V7.08563C2.64895 4.62122 4.6544 2.61642 7.11816 2.61642H20.5271C22.9922 2.61642 24.997 4.62122 24.997 7.08563V20.4952Z" fill="#FAEB4B"/>
<path d="M21.0865 8.20245C22.0122 8.20245 22.7626 7.45203 22.7626 6.52634C22.7626 5.60064 22.0122 4.85022 21.0865 4.85022C20.1608 4.85022 19.4104 5.60064 19.4104 6.52634C19.4104 7.45203 20.1608 8.20245 21.0865 8.20245Z" fill="#FAEB4B"/>
<path d="M13.8225 7.08545C10.1187 7.08545 7.11804 10.0867 7.11804 13.7899C7.11804 17.4931 10.1187 20.495 13.8225 20.495C17.5263 20.495 20.527 17.4918 20.527 13.7899C20.527 10.0881 17.525 7.08545 13.8225 7.08545ZM13.8225 18.2604C11.3542 18.2604 9.3533 16.2589 9.3533 13.7906C9.3533 11.3222 11.3548 9.32136 13.8225 9.32136C16.2902 9.32136 18.2924 11.3222 18.2924 13.7906C18.2924 16.2589 16.2909 18.2604 13.8225 18.2604Z" fill="#FAEB4B"/>
</svg>
