<svg width="31" height="27" viewBox="0 0 31 27" fill="none" xmlns="http://www.w3.org/2000/svg">
<path d="M3.60656 10.5414H27.9855C29.6187 10.5414 30.9442 11.8668 30.9442 13.5C30.9442 15.1332 29.6187 16.4586 27.9855 16.4586H3.60656C1.97341 16.4586 0.647949 15.1332 0.647949 13.5C0.647949 11.8668 1.97341 10.5414 3.60656 10.5414Z" fill="#9696EB"/>
<path d="M3.60656 0.482056H27.9855C29.6187 0.482056 30.9442 1.80751 30.9442 3.44067C30.9442 5.07382 29.6187 6.39928 27.9855 6.39928H3.60656C1.97341 6.39928 0.647949 5.07382 0.647949 3.44067C0.647949 1.80751 1.97341 0.482056 3.60656 0.482056Z" fill="#9696EB"/>
<path d="M3.60656 20.6007H27.9855C29.6187 20.6007 30.9442 21.9262 30.9442 23.5593C30.9442 25.1925 29.6187 26.5179 27.9855 26.5179H3.60656C1.97341 26.5179 0.647949 25.1925 0.647949 23.5593C0.647949 21.9262 1.97341 20.6007 3.60656 20.6007Z" fill="#9696EB"/>
</svg>
