<svg width="22" height="17" viewBox="0 0 22 17" fill="none" xmlns="http://www.w3.org/2000/svg">
<path d="M4.90667 0.297363C2.68501 0.297363 0.864868 2.11746 0.864868 4.33916V12.4721C0.864868 14.6937 2.68501 16.5139 4.90667 16.5139H17.0833C19.305 16.5139 21.1251 14.6938 21.1251 12.4721V4.33916C21.1251 2.1175 19.305 0.297363 17.0833 0.297363H4.90667ZM5.09217 2.31828H17.0478L11.8377 8.0257C11.4014 8.50367 10.6091 8.50102 10.1779 8.01762L5.09217 2.31828ZM3.2035 3.23795L8.67016 9.36378C9.89777 10.739 12.0867 10.7513 13.3297 9.38942L18.8496 3.34055C19.0121 3.63326 19.1042 3.97278 19.1042 4.33916V12.4721C19.1042 13.6091 18.2204 14.4929 17.0833 14.4929H4.90667C3.7696 14.4929 2.88579 13.6091 2.88579 12.4721V4.33916C2.88579 3.92862 3.00276 3.55277 3.2035 3.23795Z" fill="#4545CC"/>
</svg>
