<svg width="18" height="18" viewBox="0 0 18 18" fill="none" xmlns="http://www.w3.org/2000/svg">
<path d="M12.902 17.3244C7.12066 17.4869 -3.11401 7.24084 1.80751 1.6723C1.82525 1.65527 2.58224 0.995471 2.58224 0.995471C3.05734 0.556276 3.68204 0.314773 4.32902 0.320177C4.976 0.325582 5.59657 0.577488 6.06427 1.02456L7.59103 2.66909C8.04075 3.13909 8.28946 3.76594 8.2843 4.41643C8.27913 5.06691 8.02049 5.68974 7.56336 6.15253L7.28809 6.43206C8.10789 8.24749 9.55832 9.70396 11.3703 10.5313L11.6619 10.2475C12.1348 9.79709 12.7629 9.54584 13.416 9.54584C14.0692 9.54584 14.6973 9.79709 15.1702 10.2475L16.7572 11.7197C17.2273 12.1789 17.4972 12.8051 17.5081 13.4622C17.519 14.1193 17.27 14.7541 16.8154 15.2286C16.8154 15.2286 16.1556 15.9849 16.1386 16.0027C15.7135 16.4262 15.2084 16.7612 14.6529 16.9881C14.0973 17.215 13.5022 17.3293 12.902 17.3244ZM3.28887 3.20615C-0.158398 7.47567 10.8758 17.8728 14.6083 14.522C14.6083 14.522 15.2638 13.7707 15.2816 13.7537C15.3481 13.6872 15.3854 13.5969 15.3854 13.5029C15.3854 13.4088 15.3481 13.3186 15.2816 13.2521L13.6938 11.7807C13.481 11.6033 13.3611 11.6012 13.1638 11.7523L12.3579 12.5455C12.2125 12.6885 12.0291 12.7867 11.8295 12.8285C11.6299 12.8702 11.4225 12.8538 11.232 12.781C9.81634 12.2542 8.53051 11.4292 7.46164 10.362C6.39278 9.29469 5.56587 8.01009 5.03697 6.59523C4.95999 6.40318 4.94067 6.19285 4.98137 5.98998C5.02207 5.78711 5.12103 5.60051 5.26613 5.45301L6.05221 4.65415C6.08801 4.62235 6.11677 4.58343 6.13667 4.53988C6.15657 4.49633 6.16715 4.4491 6.16776 4.40122C6.16836 4.35334 6.15896 4.30587 6.14016 4.26183C6.12136 4.21779 6.09358 4.17816 6.05859 4.14547L4.53042 2.50094C4.4628 2.44444 4.37614 2.4159 4.28818 2.42118C4.20022 2.42645 4.11759 2.46514 4.05721 2.52932C4.04018 2.54706 3.28887 3.20615 3.28887 3.20615ZM17.5135 7.03723C17.5115 5.25034 16.8007 3.53723 15.5372 2.27371C14.2737 1.01018 12.5606 0.299429 10.7737 0.297363C10.4914 0.297363 10.2207 0.409483 10.0212 0.609057C9.82159 0.808631 9.70947 1.07931 9.70947 1.36155C9.70947 1.64379 9.82159 1.91447 10.0212 2.11405C10.2207 2.31362 10.4914 2.42574 10.7737 2.42574C11.9962 2.42724 13.1683 2.91358 14.0328 3.77807C14.8973 4.64257 15.3836 5.81465 15.3851 7.03723C15.3851 7.31947 15.4973 7.59015 15.6968 7.78972C15.8964 7.9893 16.1671 8.10142 16.4493 8.10142C16.7316 8.10142 17.0023 7.9893 17.2018 7.78972C17.4014 7.59015 17.5135 7.31947 17.5135 7.03723ZM13.9662 7.03723C13.9653 6.19079 13.6286 5.3793 13.0301 4.78078C12.4316 4.18226 11.6201 3.8456 10.7737 3.84466C10.4914 3.84466 10.2207 3.95678 10.0212 4.15635C9.82159 4.35593 9.70947 4.62661 9.70947 4.90885C9.70947 5.19109 9.82159 5.46177 10.0212 5.66135C10.2207 5.86092 10.4914 5.97304 10.7737 5.97304C11.0559 5.97304 11.3266 6.08516 11.5262 6.28473C11.7257 6.48431 11.8379 6.75499 11.8379 7.03723C11.8379 7.31947 11.95 7.59015 12.1495 7.78972C12.3491 7.9893 12.6198 8.10142 12.902 8.10142C13.1843 8.10142 13.455 7.9893 13.6545 7.78972C13.8541 7.59015 13.9662 7.31947 13.9662 7.03723Z" fill="#4545CC"/>
</svg>
